<?xml version="1.0" encoding="utf-8" standalone="no"?>
<!DOCTYPE svg PUBLIC "-//W3C//DTD SVG 1.1//EN"
  "http://www.w3.org/Graphics/SVG/1.1/DTD/svg11.dtd">
<svg xmlns:xlink="http://www.w3.org/1999/xlink" width="576pt" height="864pt" viewBox="0 0 576 864" xmlns="http://www.w3.org/2000/svg" version="1.1">
 <metadata>
  <rdf:RDF xmlns:dc="http://purl.org/dc/elements/1.1/" xmlns:cc="http://creativecommons.org/ns#" xmlns:rdf="http://www.w3.org/1999/02/22-rdf-syntax-ns#">
   <cc:Work>
    <dc:type rdf:resource="http://purl.org/dc/dcmitype/StillImage"/>
    <dc:date>2022-02-28T17:24:22.426789</dc:date>
    <dc:format>image/svg+xml</dc:format>
    <dc:creator>
     <cc:Agent>
      <dc:title>Matplotlib v3.5.0, https://matplotlib.org/</dc:title>
     </cc:Agent>
    </dc:creator>
   </cc:Work>
  </rdf:RDF>
 </metadata>
 <defs>
  <style type="text/css">*{stroke-linejoin: round; stroke-linecap: butt}</style>
 </defs>
 <g id="figure_1">
  <g id="patch_1">
   <path d="M 0 864 
L 576 864 
L 576 0 
L 0 0 
z
" style="fill: #ffffff"/>
  </g>
  <g id="axes_1">
   <g id="patch_2">
    <path d="M 72 768.96 
L 518.4 768.96 
L 518.4 103.68 
L 72 103.68 
z
" style="fill: #ffffff"/>
   </g>
   <g id="matplotlib.axis_1">
    <g id="xtick_1">
     <g id="line2d_1">
      <defs>
       <path id="m32cfa80e1d" d="M 0 0 
L 0 3.5 
" style="stroke: #000000; stroke-width: 0.8"/>
      </defs>
      <g>
       <use xlink:href="#m32cfa80e1d" x="92.290909" y="768.96" style="stroke: #000000; stroke-width: 0.8"/>
      </g>
     </g>
     <g id="text_1">
      <!-- 0 -->
      <g transform="translate(89.109659 783.558437)scale(0.1 -0.1)">
       <defs>
        <path id="DejaVuSans-30" d="M 2034 4250 
Q 1547 4250 1301 3770 
Q 1056 3291 1056 2328 
Q 1056 1369 1301 889 
Q 1547 409 2034 409 
Q 2525 409 2770 889 
Q 3016 1369 3016 2328 
Q 3016 3291 2770 3770 
Q 2525 4250 2034 4250 
z
M 2034 4750 
Q 2819 4750 3233 4129 
Q 3647 3509 3647 2328 
Q 3647 1150 3233 529 
Q 2819 -91 2034 -91 
Q 1250 -91 836 529 
Q 422 1150 422 2328 
Q 422 3509 836 4129 
Q 1250 4750 2034 4750 
z
" transform="scale(0.015625)"/>
       </defs>
       <use xlink:href="#DejaVuSans-30"/>
      </g>
     </g>
    </g>
    <g id="xtick_2">
     <g id="line2d_2">
      <g>
       <use xlink:href="#m32cfa80e1d" x="173.455357" y="768.96" style="stroke: #000000; stroke-width: 0.8"/>
      </g>
     </g>
     <g id="text_2">
      <!-- 20000 -->
      <g transform="translate(157.549107 783.558437)scale(0.1 -0.1)">
       <defs>
        <path id="DejaVuSans-32" d="M 1228 531 
L 3431 531 
L 3431 0 
L 469 0 
L 469 531 
Q 828 903 1448 1529 
Q 2069 2156 2228 2338 
Q 2531 2678 2651 2914 
Q 2772 3150 2772 3378 
Q 2772 3750 2511 3984 
Q 2250 4219 1831 4219 
Q 1534 4219 1204 4116 
Q 875 4013 500 3803 
L 500 4441 
Q 881 4594 1212 4672 
Q 1544 4750 1819 4750 
Q 2544 4750 2975 4387 
Q 3406 4025 3406 3419 
Q 3406 3131 3298 2873 
Q 3191 2616 2906 2266 
Q 2828 2175 2409 1742 
Q 1991 1309 1228 531 
z
" transform="scale(0.015625)"/>
       </defs>
       <use xlink:href="#DejaVuSans-32"/>
       <use xlink:href="#DejaVuSans-30" x="63.623047"/>
       <use xlink:href="#DejaVuSans-30" x="127.246094"/>
       <use xlink:href="#DejaVuSans-30" x="190.869141"/>
       <use xlink:href="#DejaVuSans-30" x="254.492188"/>
      </g>
     </g>
    </g>
    <g id="xtick_3">
     <g id="line2d_3">
      <g>
       <use xlink:href="#m32cfa80e1d" x="254.619805" y="768.96" style="stroke: #000000; stroke-width: 0.8"/>
      </g>
     </g>
     <g id="text_3">
      <!-- 40000 -->
      <g transform="translate(238.713555 783.558437)scale(0.1 -0.1)">
       <defs>
        <path id="DejaVuSans-34" d="M 2419 4116 
L 825 1625 
L 2419 1625 
L 2419 4116 
z
M 2253 4666 
L 3047 4666 
L 3047 1625 
L 3713 1625 
L 3713 1100 
L 3047 1100 
L 3047 0 
L 2419 0 
L 2419 1100 
L 313 1100 
L 313 1709 
L 2253 4666 
z
" transform="scale(0.015625)"/>
       </defs>
       <use xlink:href="#DejaVuSans-34"/>
       <use xlink:href="#DejaVuSans-30" x="63.623047"/>
       <use xlink:href="#DejaVuSans-30" x="127.246094"/>
       <use xlink:href="#DejaVuSans-30" x="190.869141"/>
       <use xlink:href="#DejaVuSans-30" x="254.492188"/>
      </g>
     </g>
    </g>
    <g id="xtick_4">
     <g id="line2d_4">
      <g>
       <use xlink:href="#m32cfa80e1d" x="335.784253" y="768.96" style="stroke: #000000; stroke-width: 0.8"/>
      </g>
     </g>
     <g id="text_4">
      <!-- 60000 -->
      <g transform="translate(319.878003 783.558437)scale(0.1 -0.1)">
       <defs>
        <path id="DejaVuSans-36" d="M 2113 2584 
Q 1688 2584 1439 2293 
Q 1191 2003 1191 1497 
Q 1191 994 1439 701 
Q 1688 409 2113 409 
Q 2538 409 2786 701 
Q 3034 994 3034 1497 
Q 3034 2003 2786 2293 
Q 2538 2584 2113 2584 
z
M 3366 4563 
L 3366 3988 
Q 3128 4100 2886 4159 
Q 2644 4219 2406 4219 
Q 1781 4219 1451 3797 
Q 1122 3375 1075 2522 
Q 1259 2794 1537 2939 
Q 1816 3084 2150 3084 
Q 2853 3084 3261 2657 
Q 3669 2231 3669 1497 
Q 3669 778 3244 343 
Q 2819 -91 2113 -91 
Q 1303 -91 875 529 
Q 447 1150 447 2328 
Q 447 3434 972 4092 
Q 1497 4750 2381 4750 
Q 2619 4750 2861 4703 
Q 3103 4656 3366 4563 
z
" transform="scale(0.015625)"/>
       </defs>
       <use xlink:href="#DejaVuSans-36"/>
       <use xlink:href="#DejaVuSans-30" x="63.623047"/>
       <use xlink:href="#DejaVuSans-30" x="127.246094"/>
       <use xlink:href="#DejaVuSans-30" x="190.869141"/>
       <use xlink:href="#DejaVuSans-30" x="254.492188"/>
      </g>
     </g>
    </g>
    <g id="xtick_5">
     <g id="line2d_5">
      <g>
       <use xlink:href="#m32cfa80e1d" x="416.948701" y="768.96" style="stroke: #000000; stroke-width: 0.8"/>
      </g>
     </g>
     <g id="text_5">
      <!-- 80000 -->
      <g transform="translate(401.042451 783.558437)scale(0.1 -0.1)">
       <defs>
        <path id="DejaVuSans-38" d="M 2034 2216 
Q 1584 2216 1326 1975 
Q 1069 1734 1069 1313 
Q 1069 891 1326 650 
Q 1584 409 2034 409 
Q 2484 409 2743 651 
Q 3003 894 3003 1313 
Q 3003 1734 2745 1975 
Q 2488 2216 2034 2216 
z
M 1403 2484 
Q 997 2584 770 2862 
Q 544 3141 544 3541 
Q 544 4100 942 4425 
Q 1341 4750 2034 4750 
Q 2731 4750 3128 4425 
Q 3525 4100 3525 3541 
Q 3525 3141 3298 2862 
Q 3072 2584 2669 2484 
Q 3125 2378 3379 2068 
Q 3634 1759 3634 1313 
Q 3634 634 3220 271 
Q 2806 -91 2034 -91 
Q 1263 -91 848 271 
Q 434 634 434 1313 
Q 434 1759 690 2068 
Q 947 2378 1403 2484 
z
M 1172 3481 
Q 1172 3119 1398 2916 
Q 1625 2713 2034 2713 
Q 2441 2713 2670 2916 
Q 2900 3119 2900 3481 
Q 2900 3844 2670 4047 
Q 2441 4250 2034 4250 
Q 1625 4250 1398 4047 
Q 1172 3844 1172 3481 
z
" transform="scale(0.015625)"/>
       </defs>
       <use xlink:href="#DejaVuSans-38"/>
       <use xlink:href="#DejaVuSans-30" x="63.623047"/>
       <use xlink:href="#DejaVuSans-30" x="127.246094"/>
       <use xlink:href="#DejaVuSans-30" x="190.869141"/>
       <use xlink:href="#DejaVuSans-30" x="254.492188"/>
      </g>
     </g>
    </g>
    <g id="xtick_6">
     <g id="line2d_6">
      <g>
       <use xlink:href="#m32cfa80e1d" x="498.113149" y="768.96" style="stroke: #000000; stroke-width: 0.8"/>
      </g>
     </g>
     <g id="text_6">
      <!-- 100000 -->
      <g transform="translate(479.025649 783.558437)scale(0.1 -0.1)">
       <defs>
        <path id="DejaVuSans-31" d="M 794 531 
L 1825 531 
L 1825 4091 
L 703 3866 
L 703 4441 
L 1819 4666 
L 2450 4666 
L 2450 531 
L 3481 531 
L 3481 0 
L 794 0 
L 794 531 
z
" transform="scale(0.015625)"/>
       </defs>
       <use xlink:href="#DejaVuSans-31"/>
       <use xlink:href="#DejaVuSans-30" x="63.623047"/>
       <use xlink:href="#DejaVuSans-30" x="127.246094"/>
       <use xlink:href="#DejaVuSans-30" x="190.869141"/>
       <use xlink:href="#DejaVuSans-30" x="254.492188"/>
       <use xlink:href="#DejaVuSans-30" x="318.115234"/>
      </g>
     </g>
    </g>
    <g id="text_7">
     <!-- Data point index - Indecies are sorted by Y value -->
     <g transform="translate(51.101562 804.835)scale(0.2 -0.2)">
      <defs>
       <path id="DejaVuSans-44" d="M 1259 4147 
L 1259 519 
L 2022 519 
Q 2988 519 3436 956 
Q 3884 1394 3884 2338 
Q 3884 3275 3436 3711 
Q 2988 4147 2022 4147 
L 1259 4147 
z
M 628 4666 
L 1925 4666 
Q 3281 4666 3915 4102 
Q 4550 3538 4550 2338 
Q 4550 1131 3912 565 
Q 3275 0 1925 0 
L 628 0 
L 628 4666 
z
" transform="scale(0.015625)"/>
       <path id="DejaVuSans-61" d="M 2194 1759 
Q 1497 1759 1228 1600 
Q 959 1441 959 1056 
Q 959 750 1161 570 
Q 1363 391 1709 391 
Q 2188 391 2477 730 
Q 2766 1069 2766 1631 
L 2766 1759 
L 2194 1759 
z
M 3341 1997 
L 3341 0 
L 2766 0 
L 2766 531 
Q 2569 213 2275 61 
Q 1981 -91 1556 -91 
Q 1019 -91 701 211 
Q 384 513 384 1019 
Q 384 1609 779 1909 
Q 1175 2209 1959 2209 
L 2766 2209 
L 2766 2266 
Q 2766 2663 2505 2880 
Q 2244 3097 1772 3097 
Q 1472 3097 1187 3025 
Q 903 2953 641 2809 
L 641 3341 
Q 956 3463 1253 3523 
Q 1550 3584 1831 3584 
Q 2591 3584 2966 3190 
Q 3341 2797 3341 1997 
z
" transform="scale(0.015625)"/>
       <path id="DejaVuSans-74" d="M 1172 4494 
L 1172 3500 
L 2356 3500 
L 2356 3053 
L 1172 3053 
L 1172 1153 
Q 1172 725 1289 603 
Q 1406 481 1766 481 
L 2356 481 
L 2356 0 
L 1766 0 
Q 1100 0 847 248 
Q 594 497 594 1153 
L 594 3053 
L 172 3053 
L 172 3500 
L 594 3500 
L 594 4494 
L 1172 4494 
z
" transform="scale(0.015625)"/>
       <path id="DejaVuSans-20" transform="scale(0.015625)"/>
       <path id="DejaVuSans-70" d="M 1159 525 
L 1159 -1331 
L 581 -1331 
L 581 3500 
L 1159 3500 
L 1159 2969 
Q 1341 3281 1617 3432 
Q 1894 3584 2278 3584 
Q 2916 3584 3314 3078 
Q 3713 2572 3713 1747 
Q 3713 922 3314 415 
Q 2916 -91 2278 -91 
Q 1894 -91 1617 61 
Q 1341 213 1159 525 
z
M 3116 1747 
Q 3116 2381 2855 2742 
Q 2594 3103 2138 3103 
Q 1681 3103 1420 2742 
Q 1159 2381 1159 1747 
Q 1159 1113 1420 752 
Q 1681 391 2138 391 
Q 2594 391 2855 752 
Q 3116 1113 3116 1747 
z
" transform="scale(0.015625)"/>
       <path id="DejaVuSans-6f" d="M 1959 3097 
Q 1497 3097 1228 2736 
Q 959 2375 959 1747 
Q 959 1119 1226 758 
Q 1494 397 1959 397 
Q 2419 397 2687 759 
Q 2956 1122 2956 1747 
Q 2956 2369 2687 2733 
Q 2419 3097 1959 3097 
z
M 1959 3584 
Q 2709 3584 3137 3096 
Q 3566 2609 3566 1747 
Q 3566 888 3137 398 
Q 2709 -91 1959 -91 
Q 1206 -91 779 398 
Q 353 888 353 1747 
Q 353 2609 779 3096 
Q 1206 3584 1959 3584 
z
" transform="scale(0.015625)"/>
       <path id="DejaVuSans-69" d="M 603 3500 
L 1178 3500 
L 1178 0 
L 603 0 
L 603 3500 
z
M 603 4863 
L 1178 4863 
L 1178 4134 
L 603 4134 
L 603 4863 
z
" transform="scale(0.015625)"/>
       <path id="DejaVuSans-6e" d="M 3513 2113 
L 3513 0 
L 2938 0 
L 2938 2094 
Q 2938 2591 2744 2837 
Q 2550 3084 2163 3084 
Q 1697 3084 1428 2787 
Q 1159 2491 1159 1978 
L 1159 0 
L 581 0 
L 581 3500 
L 1159 3500 
L 1159 2956 
Q 1366 3272 1645 3428 
Q 1925 3584 2291 3584 
Q 2894 3584 3203 3211 
Q 3513 2838 3513 2113 
z
" transform="scale(0.015625)"/>
       <path id="DejaVuSans-64" d="M 2906 2969 
L 2906 4863 
L 3481 4863 
L 3481 0 
L 2906 0 
L 2906 525 
Q 2725 213 2448 61 
Q 2172 -91 1784 -91 
Q 1150 -91 751 415 
Q 353 922 353 1747 
Q 353 2572 751 3078 
Q 1150 3584 1784 3584 
Q 2172 3584 2448 3432 
Q 2725 3281 2906 2969 
z
M 947 1747 
Q 947 1113 1208 752 
Q 1469 391 1925 391 
Q 2381 391 2643 752 
Q 2906 1113 2906 1747 
Q 2906 2381 2643 2742 
Q 2381 3103 1925 3103 
Q 1469 3103 1208 2742 
Q 947 2381 947 1747 
z
" transform="scale(0.015625)"/>
       <path id="DejaVuSans-65" d="M 3597 1894 
L 3597 1613 
L 953 1613 
Q 991 1019 1311 708 
Q 1631 397 2203 397 
Q 2534 397 2845 478 
Q 3156 559 3463 722 
L 3463 178 
Q 3153 47 2828 -22 
Q 2503 -91 2169 -91 
Q 1331 -91 842 396 
Q 353 884 353 1716 
Q 353 2575 817 3079 
Q 1281 3584 2069 3584 
Q 2775 3584 3186 3129 
Q 3597 2675 3597 1894 
z
M 3022 2063 
Q 3016 2534 2758 2815 
Q 2500 3097 2075 3097 
Q 1594 3097 1305 2825 
Q 1016 2553 972 2059 
L 3022 2063 
z
" transform="scale(0.015625)"/>
       <path id="DejaVuSans-78" d="M 3513 3500 
L 2247 1797 
L 3578 0 
L 2900 0 
L 1881 1375 
L 863 0 
L 184 0 
L 1544 1831 
L 300 3500 
L 978 3500 
L 1906 2253 
L 2834 3500 
L 3513 3500 
z
" transform="scale(0.015625)"/>
       <path id="DejaVuSans-2d" d="M 313 2009 
L 1997 2009 
L 1997 1497 
L 313 1497 
L 313 2009 
z
" transform="scale(0.015625)"/>
       <path id="DejaVuSans-49" d="M 628 4666 
L 1259 4666 
L 1259 0 
L 628 0 
L 628 4666 
z
" transform="scale(0.015625)"/>
       <path id="DejaVuSans-63" d="M 3122 3366 
L 3122 2828 
Q 2878 2963 2633 3030 
Q 2388 3097 2138 3097 
Q 1578 3097 1268 2742 
Q 959 2388 959 1747 
Q 959 1106 1268 751 
Q 1578 397 2138 397 
Q 2388 397 2633 464 
Q 2878 531 3122 666 
L 3122 134 
Q 2881 22 2623 -34 
Q 2366 -91 2075 -91 
Q 1284 -91 818 406 
Q 353 903 353 1747 
Q 353 2603 823 3093 
Q 1294 3584 2113 3584 
Q 2378 3584 2631 3529 
Q 2884 3475 3122 3366 
z
" transform="scale(0.015625)"/>
       <path id="DejaVuSans-73" d="M 2834 3397 
L 2834 2853 
Q 2591 2978 2328 3040 
Q 2066 3103 1784 3103 
Q 1356 3103 1142 2972 
Q 928 2841 928 2578 
Q 928 2378 1081 2264 
Q 1234 2150 1697 2047 
L 1894 2003 
Q 2506 1872 2764 1633 
Q 3022 1394 3022 966 
Q 3022 478 2636 193 
Q 2250 -91 1575 -91 
Q 1294 -91 989 -36 
Q 684 19 347 128 
L 347 722 
Q 666 556 975 473 
Q 1284 391 1588 391 
Q 1994 391 2212 530 
Q 2431 669 2431 922 
Q 2431 1156 2273 1281 
Q 2116 1406 1581 1522 
L 1381 1569 
Q 847 1681 609 1914 
Q 372 2147 372 2553 
Q 372 3047 722 3315 
Q 1072 3584 1716 3584 
Q 2034 3584 2315 3537 
Q 2597 3491 2834 3397 
z
" transform="scale(0.015625)"/>
       <path id="DejaVuSans-72" d="M 2631 2963 
Q 2534 3019 2420 3045 
Q 2306 3072 2169 3072 
Q 1681 3072 1420 2755 
Q 1159 2438 1159 1844 
L 1159 0 
L 581 0 
L 581 3500 
L 1159 3500 
L 1159 2956 
Q 1341 3275 1631 3429 
Q 1922 3584 2338 3584 
Q 2397 3584 2469 3576 
Q 2541 3569 2628 3553 
L 2631 2963 
z
" transform="scale(0.015625)"/>
       <path id="DejaVuSans-62" d="M 3116 1747 
Q 3116 2381 2855 2742 
Q 2594 3103 2138 3103 
Q 1681 3103 1420 2742 
Q 1159 2381 1159 1747 
Q 1159 1113 1420 752 
Q 1681 391 2138 391 
Q 2594 391 2855 752 
Q 3116 1113 3116 1747 
z
M 1159 2969 
Q 1341 3281 1617 3432 
Q 1894 3584 2278 3584 
Q 2916 3584 3314 3078 
Q 3713 2572 3713 1747 
Q 3713 922 3314 415 
Q 2916 -91 2278 -91 
Q 1894 -91 1617 61 
Q 1341 213 1159 525 
L 1159 0 
L 581 0 
L 581 4863 
L 1159 4863 
L 1159 2969 
z
" transform="scale(0.015625)"/>
       <path id="DejaVuSans-79" d="M 2059 -325 
Q 1816 -950 1584 -1140 
Q 1353 -1331 966 -1331 
L 506 -1331 
L 506 -850 
L 844 -850 
Q 1081 -850 1212 -737 
Q 1344 -625 1503 -206 
L 1606 56 
L 191 3500 
L 800 3500 
L 1894 763 
L 2988 3500 
L 3597 3500 
L 2059 -325 
z
" transform="scale(0.015625)"/>
       <path id="DejaVuSans-59" d="M -13 4666 
L 666 4666 
L 1959 2747 
L 3244 4666 
L 3922 4666 
L 2272 2222 
L 2272 0 
L 1638 0 
L 1638 2222 
L -13 4666 
z
" transform="scale(0.015625)"/>
       <path id="DejaVuSans-76" d="M 191 3500 
L 800 3500 
L 1894 563 
L 2988 3500 
L 3597 3500 
L 2284 0 
L 1503 0 
L 191 3500 
z
" transform="scale(0.015625)"/>
       <path id="DejaVuSans-6c" d="M 603 4863 
L 1178 4863 
L 1178 0 
L 603 0 
L 603 4863 
z
" transform="scale(0.015625)"/>
       <path id="DejaVuSans-75" d="M 544 1381 
L 544 3500 
L 1119 3500 
L 1119 1403 
Q 1119 906 1312 657 
Q 1506 409 1894 409 
Q 2359 409 2629 706 
Q 2900 1003 2900 1516 
L 2900 3500 
L 3475 3500 
L 3475 0 
L 2900 0 
L 2900 538 
Q 2691 219 2414 64 
Q 2138 -91 1772 -91 
Q 1169 -91 856 284 
Q 544 659 544 1381 
z
M 1991 3584 
L 1991 3584 
z
" transform="scale(0.015625)"/>
      </defs>
      <use xlink:href="#DejaVuSans-44"/>
      <use xlink:href="#DejaVuSans-61" x="77.001953"/>
      <use xlink:href="#DejaVuSans-74" x="138.28125"/>
      <use xlink:href="#DejaVuSans-61" x="177.490234"/>
      <use xlink:href="#DejaVuSans-20" x="238.769531"/>
      <use xlink:href="#DejaVuSans-70" x="270.556641"/>
      <use xlink:href="#DejaVuSans-6f" x="334.033203"/>
      <use xlink:href="#DejaVuSans-69" x="395.214844"/>
      <use xlink:href="#DejaVuSans-6e" x="422.998047"/>
      <use xlink:href="#DejaVuSans-74" x="486.376953"/>
      <use xlink:href="#DejaVuSans-20" x="525.585938"/>
      <use xlink:href="#DejaVuSans-69" x="557.373047"/>
      <use xlink:href="#DejaVuSans-6e" x="585.15625"/>
      <use xlink:href="#DejaVuSans-64" x="648.535156"/>
      <use xlink:href="#DejaVuSans-65" x="712.011719"/>
      <use xlink:href="#DejaVuSans-78" x="771.785156"/>
      <use xlink:href="#DejaVuSans-20" x="830.964844"/>
      <use xlink:href="#DejaVuSans-2d" x="862.751953"/>
      <use xlink:href="#DejaVuSans-20" x="898.835938"/>
      <use xlink:href="#DejaVuSans-49" x="930.623047"/>
      <use xlink:href="#DejaVuSans-6e" x="960.115234"/>
      <use xlink:href="#DejaVuSans-64" x="1023.494141"/>
      <use xlink:href="#DejaVuSans-65" x="1086.970703"/>
      <use xlink:href="#DejaVuSans-63" x="1148.494141"/>
      <use xlink:href="#DejaVuSans-69" x="1203.474609"/>
      <use xlink:href="#DejaVuSans-65" x="1231.257812"/>
      <use xlink:href="#DejaVuSans-73" x="1292.78125"/>
      <use xlink:href="#DejaVuSans-20" x="1344.880859"/>
      <use xlink:href="#DejaVuSans-61" x="1376.667969"/>
      <use xlink:href="#DejaVuSans-72" x="1437.947266"/>
      <use xlink:href="#DejaVuSans-65" x="1476.810547"/>
      <use xlink:href="#DejaVuSans-20" x="1538.333984"/>
      <use xlink:href="#DejaVuSans-73" x="1570.121094"/>
      <use xlink:href="#DejaVuSans-6f" x="1622.220703"/>
      <use xlink:href="#DejaVuSans-72" x="1683.402344"/>
      <use xlink:href="#DejaVuSans-74" x="1724.515625"/>
      <use xlink:href="#DejaVuSans-65" x="1763.724609"/>
      <use xlink:href="#DejaVuSans-64" x="1825.248047"/>
      <use xlink:href="#DejaVuSans-20" x="1888.724609"/>
      <use xlink:href="#DejaVuSans-62" x="1920.511719"/>
      <use xlink:href="#DejaVuSans-79" x="1983.988281"/>
      <use xlink:href="#DejaVuSans-20" x="2043.167969"/>
      <use xlink:href="#DejaVuSans-59" x="2074.955078"/>
      <use xlink:href="#DejaVuSans-20" x="2136.039062"/>
      <use xlink:href="#DejaVuSans-76" x="2167.826172"/>
      <use xlink:href="#DejaVuSans-61" x="2227.005859"/>
      <use xlink:href="#DejaVuSans-6c" x="2288.285156"/>
      <use xlink:href="#DejaVuSans-75" x="2316.068359"/>
      <use xlink:href="#DejaVuSans-65" x="2379.447266"/>
     </g>
    </g>
   </g>
   <g id="matplotlib.axis_2">
    <g id="ytick_1">
     <g id="line2d_7">
      <defs>
       <path id="m03972c0b0a" d="M 0 0 
L -3.5 0 
" style="stroke: #000000; stroke-width: 0.8"/>
      </defs>
      <g>
       <use xlink:href="#m03972c0b0a" x="72" y="738.72" style="stroke: #000000; stroke-width: 0.8"/>
      </g>
     </g>
     <g id="text_8">
      <!-- 0.0 -->
      <g transform="translate(49.096875 742.519219)scale(0.1 -0.1)">
       <defs>
        <path id="DejaVuSans-2e" d="M 684 794 
L 1344 794 
L 1344 0 
L 684 0 
L 684 794 
z
" transform="scale(0.015625)"/>
       </defs>
       <use xlink:href="#DejaVuSans-30"/>
       <use xlink:href="#DejaVuSans-2e" x="63.623047"/>
       <use xlink:href="#DejaVuSans-30" x="95.410156"/>
      </g>
     </g>
    </g>
    <g id="ytick_2">
     <g id="line2d_8">
      <g>
       <use xlink:href="#m03972c0b0a" x="72" y="663.082367" style="stroke: #000000; stroke-width: 0.8"/>
      </g>
     </g>
     <g id="text_9">
      <!-- 0.2 -->
      <g transform="translate(49.096875 666.881586)scale(0.1 -0.1)">
       <use xlink:href="#DejaVuSans-30"/>
       <use xlink:href="#DejaVuSans-2e" x="63.623047"/>
       <use xlink:href="#DejaVuSans-32" x="95.410156"/>
      </g>
     </g>
    </g>
    <g id="ytick_3">
     <g id="line2d_9">
      <g>
       <use xlink:href="#m03972c0b0a" x="72" y="587.444734" style="stroke: #000000; stroke-width: 0.8"/>
      </g>
     </g>
     <g id="text_10">
      <!-- 0.4 -->
      <g transform="translate(49.096875 591.243952)scale(0.1 -0.1)">
       <use xlink:href="#DejaVuSans-30"/>
       <use xlink:href="#DejaVuSans-2e" x="63.623047"/>
       <use xlink:href="#DejaVuSans-34" x="95.410156"/>
      </g>
     </g>
    </g>
    <g id="ytick_4">
     <g id="line2d_10">
      <g>
       <use xlink:href="#m03972c0b0a" x="72" y="511.8071" style="stroke: #000000; stroke-width: 0.8"/>
      </g>
     </g>
     <g id="text_11">
      <!-- 0.6 -->
      <g transform="translate(49.096875 515.606319)scale(0.1 -0.1)">
       <use xlink:href="#DejaVuSans-30"/>
       <use xlink:href="#DejaVuSans-2e" x="63.623047"/>
       <use xlink:href="#DejaVuSans-36" x="95.410156"/>
      </g>
     </g>
    </g>
    <g id="ytick_5">
     <g id="line2d_11">
      <g>
       <use xlink:href="#m03972c0b0a" x="72" y="436.169467" style="stroke: #000000; stroke-width: 0.8"/>
      </g>
     </g>
     <g id="text_12">
      <!-- 0.8 -->
      <g transform="translate(49.096875 439.968686)scale(0.1 -0.1)">
       <use xlink:href="#DejaVuSans-30"/>
       <use xlink:href="#DejaVuSans-2e" x="63.623047"/>
       <use xlink:href="#DejaVuSans-38" x="95.410156"/>
      </g>
     </g>
    </g>
    <g id="ytick_6">
     <g id="line2d_12">
      <g>
       <use xlink:href="#m03972c0b0a" x="72" y="360.531834" style="stroke: #000000; stroke-width: 0.8"/>
      </g>
     </g>
     <g id="text_13">
      <!-- 1.0 -->
      <g transform="translate(49.096875 364.331053)scale(0.1 -0.1)">
       <use xlink:href="#DejaVuSans-31"/>
       <use xlink:href="#DejaVuSans-2e" x="63.623047"/>
       <use xlink:href="#DejaVuSans-30" x="95.410156"/>
      </g>
     </g>
    </g>
    <g id="ytick_7">
     <g id="line2d_13">
      <g>
       <use xlink:href="#m03972c0b0a" x="72" y="284.894201" style="stroke: #000000; stroke-width: 0.8"/>
      </g>
     </g>
     <g id="text_14">
      <!-- 1.2 -->
      <g transform="translate(49.096875 288.693419)scale(0.1 -0.1)">
       <use xlink:href="#DejaVuSans-31"/>
       <use xlink:href="#DejaVuSans-2e" x="63.623047"/>
       <use xlink:href="#DejaVuSans-32" x="95.410156"/>
      </g>
     </g>
    </g>
    <g id="ytick_8">
     <g id="line2d_14">
      <g>
       <use xlink:href="#m03972c0b0a" x="72" y="209.256567" style="stroke: #000000; stroke-width: 0.8"/>
      </g>
     </g>
     <g id="text_15">
      <!-- 1.4 -->
      <g transform="translate(49.096875 213.055786)scale(0.1 -0.1)">
       <use xlink:href="#DejaVuSans-31"/>
       <use xlink:href="#DejaVuSans-2e" x="63.623047"/>
       <use xlink:href="#DejaVuSans-34" x="95.410156"/>
      </g>
     </g>
    </g>
    <g id="ytick_9">
     <g id="line2d_15">
      <g>
       <use xlink:href="#m03972c0b0a" x="72" y="133.618934" style="stroke: #000000; stroke-width: 0.8"/>
      </g>
     </g>
     <g id="text_16">
      <!-- 1.6 -->
      <g transform="translate(49.096875 137.418153)scale(0.1 -0.1)">
       <use xlink:href="#DejaVuSans-31"/>
       <use xlink:href="#DejaVuSans-2e" x="63.623047"/>
       <use xlink:href="#DejaVuSans-36" x="95.410156"/>
      </g>
     </g>
    </g>
    <g id="text_17">
     <!-- Points distance -->
     <g transform="translate(40.9375 511.902812)rotate(-90)scale(0.2 -0.2)">
      <defs>
       <path id="DejaVuSans-50" d="M 1259 4147 
L 1259 2394 
L 2053 2394 
Q 2494 2394 2734 2622 
Q 2975 2850 2975 3272 
Q 2975 3691 2734 3919 
Q 2494 4147 2053 4147 
L 1259 4147 
z
M 628 4666 
L 2053 4666 
Q 2838 4666 3239 4311 
Q 3641 3956 3641 3272 
Q 3641 2581 3239 2228 
Q 2838 1875 2053 1875 
L 1259 1875 
L 1259 0 
L 628 0 
L 628 4666 
z
" transform="scale(0.015625)"/>
      </defs>
      <use xlink:href="#DejaVuSans-50"/>
      <use xlink:href="#DejaVuSans-6f" x="56.677734"/>
      <use xlink:href="#DejaVuSans-69" x="117.859375"/>
      <use xlink:href="#DejaVuSans-6e" x="145.642578"/>
      <use xlink:href="#DejaVuSans-74" x="209.021484"/>
      <use xlink:href="#DejaVuSans-73" x="248.230469"/>
      <use xlink:href="#DejaVuSans-20" x="300.330078"/>
      <use xlink:href="#DejaVuSans-64" x="332.117188"/>
      <use xlink:href="#DejaVuSans-69" x="395.59375"/>
      <use xlink:href="#DejaVuSans-73" x="423.376953"/>
      <use xlink:href="#DejaVuSans-74" x="475.476562"/>
      <use xlink:href="#DejaVuSans-61" x="514.685547"/>
      <use xlink:href="#DejaVuSans-6e" x="575.964844"/>
      <use xlink:href="#DejaVuSans-63" x="639.34375"/>
      <use xlink:href="#DejaVuSans-65" x="694.324219"/>
     </g>
    </g>
   </g>
   <g id="line2d_16">
    <path d="M 92.290909 738.72 
L 145.636243 738.719977 
L 145.749873 730.821114 
L 152.912635 730.821114 
L 153.03844 728.423046 
L 155.067551 728.332694 
L 155.189298 727.433298 
L 155.375976 727.433298 
L 155.489607 727.225685 
L 155.668168 727.225685 
L 155.789915 726.694302 
L 155.798031 726.694302 
L 155.931953 725.652312 
L 156.037467 725.601647 
L 156.151097 725.53417 
L 156.496046 725.455605 
L 156.621851 724.819363 
L 157.539009 724.726169 
L 157.705396 724.431044 
L 157.819026 724.33623 
L 157.932656 724.247623 
L 158.099044 724.143587 
L 158.24514 723.716857 
L 158.902572 723.609386 
L 159.028376 723.530723 
L 159.401733 723.442031 
L 159.52348 723.358029 
L 159.896836 723.247452 
L 160.728772 723.131345 
L 161.69057 723.041793 
L 161.820433 722.914458 
L 161.930005 722.808354 
L 162.05581 722.749237 
L 162.595554 722.656062 
L 162.717301 722.376285 
L 164.937148 722.284489 
L 165.058895 722.008803 
L 165.805608 721.900627 
L 165.919238 721.806289 
L 166.073451 721.705514 
L 166.235779 721.607787 
L 166.381875 721.482331 
L 167.408606 721.391069 
L 167.526294 721.352343 
L 168.979138 721.243215 
L 169.096826 721.188843 
L 169.685268 721.093509 
L 169.802957 721.014681 
L 170.326468 720.906074 
L 170.59431 720.851367 
L 171.410013 720.741731 
L 171.53176 720.691998 
L 172.026863 720.582949 
L 172.144551 720.537158 
L 175.025889 720.444709 
L 175.151694 720.371871 
L 175.638681 720.261477 
L 175.77666 720.220548 
L 176.669469 720.114709 
L 176.864264 720.025955 
L 177.266028 719.929052 
L 177.399949 719.783777 
L 177.984333 719.678895 
L 178.142604 719.63123 
L 178.694522 719.522647 
L 178.893375 719.355788 
L 179.226149 719.248527 
L 179.364129 719.098538 
L 180.021561 718.989709 
L 180.59377 718.776945 
L 180.942777 718.671053 
L 181.084815 718.601533 
L 181.754422 718.498081 
L 181.880227 718.415364 
L 182.927248 718.313553 
L 183.053053 718.241663 
L 183.393944 718.131531 
L 183.738893 717.950867 
L 184.043259 717.848965 
L 184.160948 717.829689 
L 184.63576 717.726351 
L 184.781856 717.668121 
L 184.936068 717.637567 
L 185.305367 717.528601 
L 185.431171 717.462481 
L 186.271223 717.224437 
L 186.429494 717.196264 
L 187.655077 717.089607 
L 187.793057 717.043317 
L 188.280044 716.932546 
L 189.168794 716.657399 
L 189.31489 716.621963 
L 189.761295 716.514145 
L 190.008846 716.448768 
L 190.820491 716.298567 
L 191.051809 716.252803 
L 191.404875 716.152153 
L 191.526621 716.134485 
L 192.244927 716.02908 
L 192.37479 715.962617 
L 192.520886 715.856649 
L 192.687273 715.793778 
L 192.849602 715.748852 
L 193.214842 715.640707 
L 193.377171 715.588952 
L 193.839808 715.479506 
L 194.253747 715.308962 
L 195.276419 715.198045 
L 195.422515 715.154079 
L 195.852687 715.04461 
L 196.010957 714.954327 
L 196.46142 714.846548 
L 196.660273 714.75725 
L 197.049862 714.647322 
L 197.252773 714.601282 
L 197.723527 714.49707 
L 197.881798 714.439455 
L 202.211921 713.29217 
L 202.873411 713.181273 
L 204.082762 712.827559 
L 204.228858 712.765646 
L 204.687437 712.654618 
L 205.543722 712.4923 
L 205.7304 712.442621 
L 206.371599 712.338497 
L 206.509579 712.30295 
L 207.069613 712.156058 
L 207.451086 712.046811 
L 207.60124 712.00168 
L 208.274905 711.890673 
L 208.42506 711.826558 
L 208.806532 711.71697 
L 209.528896 711.556064 
L 210.117338 711.445356 
L 210.985798 711.25668 
L 211.282048 711.147552 
L 211.440319 711.100485 
L 211.898898 710.989945 
L 214.695013 710.259221 
L 215.088661 710.148548 
L 221.780669 708.744258 
L 222.494917 708.593424 
L 222.778992 708.528597 
L 223.196989 708.420694 
L 223.420191 708.364571 
L 224.077623 708.25512 
L 224.260243 708.202702 
L 224.966374 708.092063 
L 225.43307 708.013767 
L 225.928173 707.908761 
L 226.078327 707.868602 
L 227.977575 707.477778 
L 228.212952 707.411056 
L 228.821685 707.300568 
L 229.507525 707.161538 
L 230.311053 707.050737 
L 231.236328 706.85605 
L 231.447355 706.820875 
L 231.934342 706.715411 
L 232.409154 706.607127 
L 232.575541 706.553325 
L 234.288111 706.228775 
L 234.547837 706.154963 
L 235.310783 705.998587 
L 236.158951 705.813584 
L 236.353746 705.75133 
L 237.00712 705.625937 
L 238.10284 705.431772 
L 238.715632 705.321794 
L 239.231026 705.233631 
L 239.787002 705.122567 
L 240.237465 705.014918 
L 240.720393 704.906164 
L 240.886781 704.88066 
L 241.613202 704.719774 
L 241.807997 704.676603 
L 243.32983 704.347912 
L 244.19829 704.195768 
L 244.352502 704.158765 
L 244.981527 704.049237 
L 245.671425 703.889181 
L 246.466836 703.760854 
L 246.629165 703.720953 
L 250.54535 702.969641 
L 252.018485 702.685011 
L 252.675917 702.57407 
L 253.134496 702.461062 
L 253.804102 702.350349 
L 255.269121 702.080353 
L 256.523111 701.852884 
L 257.042564 701.736323 
L 257.213009 701.700294 
L 261.31993 700.895724 
L 261.466026 700.861575 
L 262.529281 700.663263 
L 262.922928 700.591029 
L 263.422089 700.487293 
L 264.099813 700.376431 
L 264.92769 700.205594 
L 265.532365 700.094538 
L 266.883753 699.835367 
L 267.106955 699.807986 
L 267.727863 699.697309 
L 268.093103 699.635018 
L 269.351152 699.376175 
L 269.618995 699.30418 
L 270.122215 699.199449 
L 270.820229 699.056663 
L 290.77045 695.18732 
L 291.75254 695.007485 
L 292.146188 694.927131 
L 296.598058 694.012293 
L 298.233521 693.709707 
L 300.713095 693.220744 
L 301.058044 693.15127 
L 301.703301 693.022156 
L 302.210579 692.911119 
L 302.677275 692.817236 
L 303.237309 692.709048 
L 303.460512 692.672521 
L 306.009075 692.157645 
L 306.727381 692.010993 
L 307.275241 691.901336 
L 307.685121 691.832063 
L 309.288119 691.459403 
L 311.49985 690.987384 
L 312.165399 690.87659 
L 312.445416 690.805506 
L 319.843556 689.197503 
L 320.03835 689.158875 
L 320.663316 689.012461 
L 320.83782 688.963581 
L 322.830407 688.535377 
L 323.637993 688.329496 
L 323.974826 688.24565 
L 324.457754 688.135005 
L 324.762121 688.056144 
L 325.35868 687.921854 
L 325.886249 687.807951 
L 326.710068 687.649191 
L 326.961678 687.594692 
L 327.477072 687.484756 
L 327.830137 687.387133 
L 332.075038 686.350573 
L 332.22925 686.308495 
L 332.842042 686.197875 
L 334.323293 685.80644 
L 334.757523 685.695445 
L 336.027746 685.325134 
L 338.064974 684.860472 
L 338.458622 684.778323 
L 338.892851 684.670047 
L 339.075471 684.611078 
L 339.566516 684.490256 
L 339.708554 684.450799 
L 340.10626 684.341877 
L 340.292938 684.301785 
L 340.852973 684.160816 
L 341.047768 684.122102 
L 341.591569 684.006846 
L 342.143488 683.858692 
L 342.646707 683.747679 
L 344.132017 683.369487 
L 345.921693 682.925529 
L 347.358303 682.546103 
L 368.319022 676.691419 
L 368.509759 676.643485 
L 368.923697 676.534145 
L 369.163132 676.458322 
L 369.873321 676.265081 
L 370.116815 676.183571 
L 370.477996 676.073161 
L 373.842263 675.062119 
L 374.321133 674.876542 
L 386.406519 671.008578 
L 386.637838 670.942479 
L 387.506298 670.639489 
L 387.7295 670.562609 
L 391.19928 669.269508 
L 391.836421 669.05208 
L 392.761696 668.670159 
L 393.074179 668.534851 
L 393.2081 668.493709 
L 393.808717 668.254031 
L 393.971046 668.205242 
L 394.299762 668.081368 
L 394.681235 667.936857 
L 395.131697 667.762771 
L 395.338667 667.674236 
L 395.638975 667.563385 
L 395.939284 667.432747 
L 396.077263 667.362943 
L 397.712727 666.669733 
L 397.919696 666.588894 
L 399.526752 665.885623 
L 399.758071 665.761511 
L 400.017797 665.657387 
L 400.17201 665.59694 
L 400.447969 665.488621 
L 400.711753 665.398842 
L 401.328603 665.134643 
L 401.482816 665.060647 
L 401.957628 664.869083 
L 402.132131 664.769552 
L 402.582594 664.603911 
L 402.777389 664.512474 
L 403.195385 664.31986 
L 403.426704 664.234615 
L 403.731071 664.091811 
L 403.877167 664.005852 
L 404.12066 663.887873 
L 404.388503 663.785173 
L 407.65943 662.374633 
L 407.854225 662.297021 
L 408.130184 662.180387 
L 408.381794 662.038456 
L 408.925595 661.807609 
L 409.927976 661.337113 
L 410.086247 661.257237 
L 410.678748 660.928581 
L 410.987172 660.77538 
L 411.169792 660.671912 
L 412.001728 660.24272 
L 412.131591 660.171857 
L 412.36291 660.06156 
L 412.845838 659.852617 
L 412.987876 659.797978 
L 413.247602 659.682099 
L 414.611165 658.967845 
L 414.846542 658.858961 
L 414.992638 658.794798 
L 415.42281 658.582185 
L 415.796166 658.412884 
L 416.007194 658.303639 
L 416.161406 658.225428 
L 416.522588 658.097777 
L 416.70115 658.038761 
L 428.835235 651.550976 
L 429.025971 651.456126 
L 429.204533 651.346918 
L 429.476434 651.167248 
L 430.539688 650.537388 
L 430.702017 650.425592 
L 430.921161 650.266353 
L 431.180887 650.120583 
L 431.383798 650.011527 
L 431.655699 649.85676 
L 431.834261 649.726469 
L 432.171093 649.581768 
L 432.491693 649.35012 
L 432.641847 649.249233 
L 432.79606 649.150571 
L 433.015204 649.041412 
L 433.258697 648.906371 
L 433.546831 648.72205 
L 434.086574 648.345135 
L 434.224554 648.23561 
L 435.855959 647.272643 
L 436.026405 647.124363 
L 442.8848 642.22559 
L 443.059304 642.020193 
L 443.314972 641.850266 
L 443.611222 641.561666 
L 443.777609 641.443176 
L 444.601429 640.8474 
L 444.723175 640.736848 
L 444.857097 640.650809 
L 445.043775 640.540746 
L 445.311617 640.309214 
L 445.449597 640.187335 
L 445.676857 640.036391 
L 445.835128 639.939811 
L 446.987663 638.980689 
L 447.287972 638.686496 
L 447.442184 638.577512 
L 448.862562 637.181445 
L 449.008658 637.056069 
L 449.248093 636.856358 
L 449.503761 636.639829 
L 449.662032 636.51369 
L 450.051621 636.107594 
L 450.177426 635.999011 
L 450.355988 635.85177 
L 450.477735 635.749198 
L 450.644122 635.546453 
L 450.855149 635.410601 
L 451.293437 635.022625 
L 451.504465 634.830345 
L 451.739842 634.6444 
L 452.011743 634.38944 
L 452.121315 634.281766 
L 452.397274 634.031072 
L 452.677291 633.760214 
L 452.831504 633.600446 
L 453.432121 632.990461 
L 453.517343 632.889659 
L 453.663439 632.728061 
L 453.768953 632.585825 
L 453.915049 632.479017 
L 454.036796 632.373047 
L 454.182892 632.228794 
L 454.337104 632.127477 
L 454.4832 632.00145 
L 454.588714 631.890753 
L 454.755101 631.720159 
L 454.913372 631.558923 
L 455.067584 631.370854 
L 455.238029 631.172071 
L 455.359776 631.069452 
L 455.530221 630.870577 
L 455.936044 630.500757 
L 456.078082 630.340834 
L 456.203886 630.189345 
L 456.455496 629.930734 
L 457.555274 628.805432 
L 457.888049 628.462365 
L 458.151833 628.207434 
L 458.350686 627.978387 
L 458.529248 627.8241 
L 458.82144 627.5683 
L 459.486988 626.838776 
L 459.629026 626.660745 
L 459.702074 626.54951 
L 459.921218 626.313645 
L 460.063256 626.145486 
L 460.205294 625.97651 
L 460.781561 625.331153 
L 460.952007 625.017192 
L 461.085928 624.910951 
L 461.617555 624.309004 
L 463.593909 621.90126 
L 463.735947 621.722371 
L 463.894218 621.559901 
L 464.766736 620.289356 
L 464.957472 619.939943 
L 465.436342 619.308329 
L 465.517507 619.195183 
L 465.712301 618.793643 
L 465.89898 618.537221 
L 468.492184 614.776778 
L 468.68292 614.44358 
L 468.861482 614.246923 
L 469.449924 613.356768 
L 469.600079 613.149158 
L 469.770524 612.850774 
L 469.835455 612.745939 
L 470.022134 612.496532 
L 470.172288 612.250714 
L 470.3265 612.035418 
L 470.399548 611.876965 
L 470.805371 611.211301 
L 473.073917 606.973576 
L 473.207838 606.617583 
L 473.366109 606.407475 
L 473.3864 606.296781 
L 473.548729 605.951828 
L 474.267034 604.523135 
L 474.494295 604.180277 
L 474.628216 603.83658 
L 474.689089 603.739114 
L 474.871709 603.337926 
L 475.078679 602.986333 
L 475.123319 602.887804 
L 475.362754 602.421985 
L 475.452035 602.296269 
L 475.590015 602.003255 
L 475.87409 601.473893 
L 475.934964 601.346303 
L 476.093234 600.995273 
L 476.210923 600.789206 
L 476.344844 600.594656 
L 476.458474 600.408598 
L 476.620803 600.090248 
L 476.67356 599.982506 
L 476.949519 599.330001 
L 477.014451 599.241458 
L 477.17678 598.881411 
L 477.233595 598.779677 
L 477.412157 598.41252 
L 477.493321 598.302525 
L 477.895085 597.381586 
L 477.943784 597.266791 
L 478.097996 596.860039 
L 478.171044 596.73863 
L 480.171748 592.409036 
L 480.476115 591.683403 
L 480.638443 591.317159 
L 480.748015 591.076574 
L 480.910344 590.620357 
L 481.064557 590.324107 
L 481.202536 590.026631 
L 481.295876 589.903938 
L 482.505226 586.334978 
L 482.651322 585.96355 
L 482.76901 585.63218 
L 483.036853 584.686453 
L 483.093668 584.560275 
L 483.527898 583.081692 
L 483.572538 582.984864 
L 484.221854 580.707967 
L 484.238087 580.654293 
L 484.376066 580.071451 
L 484.416649 579.971941 
L 484.558686 579.328151 
L 484.712899 578.807196 
L 485.573242 575.98836 
L 485.617882 575.832629 
L 485.841085 575.00395 
L 485.881667 574.899222 
L 486.169801 573.972185 
L 486.324013 573.502755 
L 486.352421 573.424343 
L 486.498517 572.903912 
L 486.55939 572.649473 
L 486.733894 571.884207 
L 487.180298 570.167821 
L 487.22088 570.091667 
L 487.371034 569.412926 
L 487.435966 569.205026 
L 487.594237 568.279013 
L 487.646994 568.220924 
L 487.797148 567.350697 
L 488.515453 564.289402 
L 488.653433 563.581256 
L 488.689957 563.489242 
L 488.823878 562.762022 
L 488.880693 562.512029 
L 489.014615 561.600977 
L 489.323039 559.995819 
L 489.485368 558.967284 
L 489.623348 558.34746 
L 489.805968 557.207248 
L 490.000763 556.020117 
L 490.163091 555.123315 
L 491.283161 548.076733 
L 491.327801 547.793596 
L 491.469839 546.829618 
L 493.778968 526.557968 
L 494.010286 523.97959 
L 494.030577 523.766063 
L 494.36741 518.640457 
L 494.403934 517.859299 
L 494.862513 511.877206 
L 495.146589 505.959774 
L 495.333267 501.929373 
L 495.491537 499.638546 
L 495.674157 496.191795 
L 495.864894 491.499643 
L 496.997138 449.846978 
L 497.147292 440.612352 
L 497.191933 438.249623 
L 497.825015 381.92247 
L 498.105033 195.276491 
L 498.109091 133.92 
L 498.109091 133.92 
" clip-path="url(#pc546aaaaff)" style="fill: none; stroke: #1f77b4; stroke-width: 1.5; stroke-linecap: square"/>
   </g>
   <g id="patch_3">
    <path d="M 72 768.96 
L 72 103.68 
" style="fill: none; stroke: #000000; stroke-width: 0.8; stroke-linejoin: miter; stroke-linecap: square"/>
   </g>
   <g id="patch_4">
    <path d="M 518.4 768.96 
L 518.4 103.68 
" style="fill: none; stroke: #000000; stroke-width: 0.8; stroke-linejoin: miter; stroke-linecap: square"/>
   </g>
   <g id="patch_5">
    <path d="M 72 768.96 
L 518.4 768.96 
" style="fill: none; stroke: #000000; stroke-width: 0.8; stroke-linejoin: miter; stroke-linecap: square"/>
   </g>
   <g id="patch_6">
    <path d="M 72 103.68 
L 518.4 103.68 
" style="fill: none; stroke: #000000; stroke-width: 0.8; stroke-linejoin: miter; stroke-linecap: square"/>
   </g>
  </g>
 </g>
 <defs>
  <clipPath id="pc546aaaaff">
   <rect x="72" y="103.68" width="446.4" height="665.28"/>
  </clipPath>
 </defs>
</svg>
