<?xml version="1.0" encoding="utf-8" standalone="no"?>
<!DOCTYPE svg PUBLIC "-//W3C//DTD SVG 1.1//EN"
  "http://www.w3.org/Graphics/SVG/1.1/DTD/svg11.dtd">
<svg xmlns:xlink="http://www.w3.org/1999/xlink" width="576pt" height="864pt" viewBox="0 0 576 864" xmlns="http://www.w3.org/2000/svg" version="1.1">
 <metadata>
  <rdf:RDF xmlns:dc="http://purl.org/dc/elements/1.1/" xmlns:cc="http://creativecommons.org/ns#" xmlns:rdf="http://www.w3.org/1999/02/22-rdf-syntax-ns#">
   <cc:Work>
    <dc:type rdf:resource="http://purl.org/dc/dcmitype/StillImage"/>
    <dc:date>2022-02-28T18:06:39.644388</dc:date>
    <dc:format>image/svg+xml</dc:format>
    <dc:creator>
     <cc:Agent>
      <dc:title>Matplotlib v3.5.0, https://matplotlib.org/</dc:title>
     </cc:Agent>
    </dc:creator>
   </cc:Work>
  </rdf:RDF>
 </metadata>
 <defs>
  <style type="text/css">*{stroke-linejoin: round; stroke-linecap: butt}</style>
 </defs>
 <g id="figure_1">
  <g id="patch_1">
   <path d="M 0 864 
L 576 864 
L 576 0 
L 0 0 
z
" style="fill: #ffffff"/>
  </g>
  <g id="axes_1">
   <g id="patch_2">
    <path d="M 72 768.96 
L 518.4 768.96 
L 518.4 103.68 
L 72 103.68 
z
" style="fill: #ffffff"/>
   </g>
   <g id="matplotlib.axis_1">
    <g id="xtick_1">
     <g id="line2d_1">
      <defs>
       <path id="m3a669180b6" d="M 0 0 
L 0 3.5 
" style="stroke: #000000; stroke-width: 0.8"/>
      </defs>
      <g>
       <use xlink:href="#m3a669180b6" x="92.290909" y="768.96" style="stroke: #000000; stroke-width: 0.8"/>
      </g>
     </g>
     <g id="text_1">
      <!-- 0 -->
      <g transform="translate(89.109659 783.558437)scale(0.1 -0.1)">
       <defs>
        <path id="DejaVuSans-30" d="M 2034 4250 
Q 1547 4250 1301 3770 
Q 1056 3291 1056 2328 
Q 1056 1369 1301 889 
Q 1547 409 2034 409 
Q 2525 409 2770 889 
Q 3016 1369 3016 2328 
Q 3016 3291 2770 3770 
Q 2525 4250 2034 4250 
z
M 2034 4750 
Q 2819 4750 3233 4129 
Q 3647 3509 3647 2328 
Q 3647 1150 3233 529 
Q 2819 -91 2034 -91 
Q 1250 -91 836 529 
Q 422 1150 422 2328 
Q 422 3509 836 4129 
Q 1250 4750 2034 4750 
z
" transform="scale(0.015625)"/>
       </defs>
       <use xlink:href="#DejaVuSans-30"/>
      </g>
     </g>
    </g>
    <g id="xtick_2">
     <g id="line2d_2">
      <g>
       <use xlink:href="#m3a669180b6" x="173.462663" y="768.96" style="stroke: #000000; stroke-width: 0.8"/>
      </g>
     </g>
     <g id="text_2">
      <!-- 2000 -->
      <g transform="translate(160.737663 783.558437)scale(0.1 -0.1)">
       <defs>
        <path id="DejaVuSans-32" d="M 1228 531 
L 3431 531 
L 3431 0 
L 469 0 
L 469 531 
Q 828 903 1448 1529 
Q 2069 2156 2228 2338 
Q 2531 2678 2651 2914 
Q 2772 3150 2772 3378 
Q 2772 3750 2511 3984 
Q 2250 4219 1831 4219 
Q 1534 4219 1204 4116 
Q 875 4013 500 3803 
L 500 4441 
Q 881 4594 1212 4672 
Q 1544 4750 1819 4750 
Q 2544 4750 2975 4387 
Q 3406 4025 3406 3419 
Q 3406 3131 3298 2873 
Q 3191 2616 2906 2266 
Q 2828 2175 2409 1742 
Q 1991 1309 1228 531 
z
" transform="scale(0.015625)"/>
       </defs>
       <use xlink:href="#DejaVuSans-32"/>
       <use xlink:href="#DejaVuSans-30" x="63.623047"/>
       <use xlink:href="#DejaVuSans-30" x="127.246094"/>
       <use xlink:href="#DejaVuSans-30" x="190.869141"/>
      </g>
     </g>
    </g>
    <g id="xtick_3">
     <g id="line2d_3">
      <g>
       <use xlink:href="#m3a669180b6" x="254.634416" y="768.96" style="stroke: #000000; stroke-width: 0.8"/>
      </g>
     </g>
     <g id="text_3">
      <!-- 4000 -->
      <g transform="translate(241.909416 783.558437)scale(0.1 -0.1)">
       <defs>
        <path id="DejaVuSans-34" d="M 2419 4116 
L 825 1625 
L 2419 1625 
L 2419 4116 
z
M 2253 4666 
L 3047 4666 
L 3047 1625 
L 3713 1625 
L 3713 1100 
L 3047 1100 
L 3047 0 
L 2419 0 
L 2419 1100 
L 313 1100 
L 313 1709 
L 2253 4666 
z
" transform="scale(0.015625)"/>
       </defs>
       <use xlink:href="#DejaVuSans-34"/>
       <use xlink:href="#DejaVuSans-30" x="63.623047"/>
       <use xlink:href="#DejaVuSans-30" x="127.246094"/>
       <use xlink:href="#DejaVuSans-30" x="190.869141"/>
      </g>
     </g>
    </g>
    <g id="xtick_4">
     <g id="line2d_4">
      <g>
       <use xlink:href="#m3a669180b6" x="335.80617" y="768.96" style="stroke: #000000; stroke-width: 0.8"/>
      </g>
     </g>
     <g id="text_4">
      <!-- 6000 -->
      <g transform="translate(323.08117 783.558437)scale(0.1 -0.1)">
       <defs>
        <path id="DejaVuSans-36" d="M 2113 2584 
Q 1688 2584 1439 2293 
Q 1191 2003 1191 1497 
Q 1191 994 1439 701 
Q 1688 409 2113 409 
Q 2538 409 2786 701 
Q 3034 994 3034 1497 
Q 3034 2003 2786 2293 
Q 2538 2584 2113 2584 
z
M 3366 4563 
L 3366 3988 
Q 3128 4100 2886 4159 
Q 2644 4219 2406 4219 
Q 1781 4219 1451 3797 
Q 1122 3375 1075 2522 
Q 1259 2794 1537 2939 
Q 1816 3084 2150 3084 
Q 2853 3084 3261 2657 
Q 3669 2231 3669 1497 
Q 3669 778 3244 343 
Q 2819 -91 2113 -91 
Q 1303 -91 875 529 
Q 447 1150 447 2328 
Q 447 3434 972 4092 
Q 1497 4750 2381 4750 
Q 2619 4750 2861 4703 
Q 3103 4656 3366 4563 
z
" transform="scale(0.015625)"/>
       </defs>
       <use xlink:href="#DejaVuSans-36"/>
       <use xlink:href="#DejaVuSans-30" x="63.623047"/>
       <use xlink:href="#DejaVuSans-30" x="127.246094"/>
       <use xlink:href="#DejaVuSans-30" x="190.869141"/>
      </g>
     </g>
    </g>
    <g id="xtick_5">
     <g id="line2d_5">
      <g>
       <use xlink:href="#m3a669180b6" x="416.977923" y="768.96" style="stroke: #000000; stroke-width: 0.8"/>
      </g>
     </g>
     <g id="text_5">
      <!-- 8000 -->
      <g transform="translate(404.252923 783.558437)scale(0.1 -0.1)">
       <defs>
        <path id="DejaVuSans-38" d="M 2034 2216 
Q 1584 2216 1326 1975 
Q 1069 1734 1069 1313 
Q 1069 891 1326 650 
Q 1584 409 2034 409 
Q 2484 409 2743 651 
Q 3003 894 3003 1313 
Q 3003 1734 2745 1975 
Q 2488 2216 2034 2216 
z
M 1403 2484 
Q 997 2584 770 2862 
Q 544 3141 544 3541 
Q 544 4100 942 4425 
Q 1341 4750 2034 4750 
Q 2731 4750 3128 4425 
Q 3525 4100 3525 3541 
Q 3525 3141 3298 2862 
Q 3072 2584 2669 2484 
Q 3125 2378 3379 2068 
Q 3634 1759 3634 1313 
Q 3634 634 3220 271 
Q 2806 -91 2034 -91 
Q 1263 -91 848 271 
Q 434 634 434 1313 
Q 434 1759 690 2068 
Q 947 2378 1403 2484 
z
M 1172 3481 
Q 1172 3119 1398 2916 
Q 1625 2713 2034 2713 
Q 2441 2713 2670 2916 
Q 2900 3119 2900 3481 
Q 2900 3844 2670 4047 
Q 2441 4250 2034 4250 
Q 1625 4250 1398 4047 
Q 1172 3844 1172 3481 
z
" transform="scale(0.015625)"/>
       </defs>
       <use xlink:href="#DejaVuSans-38"/>
       <use xlink:href="#DejaVuSans-30" x="63.623047"/>
       <use xlink:href="#DejaVuSans-30" x="127.246094"/>
       <use xlink:href="#DejaVuSans-30" x="190.869141"/>
      </g>
     </g>
    </g>
    <g id="xtick_6">
     <g id="line2d_6">
      <g>
       <use xlink:href="#m3a669180b6" x="498.149677" y="768.96" style="stroke: #000000; stroke-width: 0.8"/>
      </g>
     </g>
     <g id="text_6">
      <!-- 10000 -->
      <g transform="translate(482.243427 783.558437)scale(0.1 -0.1)">
       <defs>
        <path id="DejaVuSans-31" d="M 794 531 
L 1825 531 
L 1825 4091 
L 703 3866 
L 703 4441 
L 1819 4666 
L 2450 4666 
L 2450 531 
L 3481 531 
L 3481 0 
L 794 0 
L 794 531 
z
" transform="scale(0.015625)"/>
       </defs>
       <use xlink:href="#DejaVuSans-31"/>
       <use xlink:href="#DejaVuSans-30" x="63.623047"/>
       <use xlink:href="#DejaVuSans-30" x="127.246094"/>
       <use xlink:href="#DejaVuSans-30" x="190.869141"/>
       <use xlink:href="#DejaVuSans-30" x="254.492188"/>
      </g>
     </g>
    </g>
    <g id="text_7">
     <!-- Data point index - Indecies are sorted by Y value -->
     <g transform="translate(51.101562 804.835)scale(0.2 -0.2)">
      <defs>
       <path id="DejaVuSans-44" d="M 1259 4147 
L 1259 519 
L 2022 519 
Q 2988 519 3436 956 
Q 3884 1394 3884 2338 
Q 3884 3275 3436 3711 
Q 2988 4147 2022 4147 
L 1259 4147 
z
M 628 4666 
L 1925 4666 
Q 3281 4666 3915 4102 
Q 4550 3538 4550 2338 
Q 4550 1131 3912 565 
Q 3275 0 1925 0 
L 628 0 
L 628 4666 
z
" transform="scale(0.015625)"/>
       <path id="DejaVuSans-61" d="M 2194 1759 
Q 1497 1759 1228 1600 
Q 959 1441 959 1056 
Q 959 750 1161 570 
Q 1363 391 1709 391 
Q 2188 391 2477 730 
Q 2766 1069 2766 1631 
L 2766 1759 
L 2194 1759 
z
M 3341 1997 
L 3341 0 
L 2766 0 
L 2766 531 
Q 2569 213 2275 61 
Q 1981 -91 1556 -91 
Q 1019 -91 701 211 
Q 384 513 384 1019 
Q 384 1609 779 1909 
Q 1175 2209 1959 2209 
L 2766 2209 
L 2766 2266 
Q 2766 2663 2505 2880 
Q 2244 3097 1772 3097 
Q 1472 3097 1187 3025 
Q 903 2953 641 2809 
L 641 3341 
Q 956 3463 1253 3523 
Q 1550 3584 1831 3584 
Q 2591 3584 2966 3190 
Q 3341 2797 3341 1997 
z
" transform="scale(0.015625)"/>
       <path id="DejaVuSans-74" d="M 1172 4494 
L 1172 3500 
L 2356 3500 
L 2356 3053 
L 1172 3053 
L 1172 1153 
Q 1172 725 1289 603 
Q 1406 481 1766 481 
L 2356 481 
L 2356 0 
L 1766 0 
Q 1100 0 847 248 
Q 594 497 594 1153 
L 594 3053 
L 172 3053 
L 172 3500 
L 594 3500 
L 594 4494 
L 1172 4494 
z
" transform="scale(0.015625)"/>
       <path id="DejaVuSans-20" transform="scale(0.015625)"/>
       <path id="DejaVuSans-70" d="M 1159 525 
L 1159 -1331 
L 581 -1331 
L 581 3500 
L 1159 3500 
L 1159 2969 
Q 1341 3281 1617 3432 
Q 1894 3584 2278 3584 
Q 2916 3584 3314 3078 
Q 3713 2572 3713 1747 
Q 3713 922 3314 415 
Q 2916 -91 2278 -91 
Q 1894 -91 1617 61 
Q 1341 213 1159 525 
z
M 3116 1747 
Q 3116 2381 2855 2742 
Q 2594 3103 2138 3103 
Q 1681 3103 1420 2742 
Q 1159 2381 1159 1747 
Q 1159 1113 1420 752 
Q 1681 391 2138 391 
Q 2594 391 2855 752 
Q 3116 1113 3116 1747 
z
" transform="scale(0.015625)"/>
       <path id="DejaVuSans-6f" d="M 1959 3097 
Q 1497 3097 1228 2736 
Q 959 2375 959 1747 
Q 959 1119 1226 758 
Q 1494 397 1959 397 
Q 2419 397 2687 759 
Q 2956 1122 2956 1747 
Q 2956 2369 2687 2733 
Q 2419 3097 1959 3097 
z
M 1959 3584 
Q 2709 3584 3137 3096 
Q 3566 2609 3566 1747 
Q 3566 888 3137 398 
Q 2709 -91 1959 -91 
Q 1206 -91 779 398 
Q 353 888 353 1747 
Q 353 2609 779 3096 
Q 1206 3584 1959 3584 
z
" transform="scale(0.015625)"/>
       <path id="DejaVuSans-69" d="M 603 3500 
L 1178 3500 
L 1178 0 
L 603 0 
L 603 3500 
z
M 603 4863 
L 1178 4863 
L 1178 4134 
L 603 4134 
L 603 4863 
z
" transform="scale(0.015625)"/>
       <path id="DejaVuSans-6e" d="M 3513 2113 
L 3513 0 
L 2938 0 
L 2938 2094 
Q 2938 2591 2744 2837 
Q 2550 3084 2163 3084 
Q 1697 3084 1428 2787 
Q 1159 2491 1159 1978 
L 1159 0 
L 581 0 
L 581 3500 
L 1159 3500 
L 1159 2956 
Q 1366 3272 1645 3428 
Q 1925 3584 2291 3584 
Q 2894 3584 3203 3211 
Q 3513 2838 3513 2113 
z
" transform="scale(0.015625)"/>
       <path id="DejaVuSans-64" d="M 2906 2969 
L 2906 4863 
L 3481 4863 
L 3481 0 
L 2906 0 
L 2906 525 
Q 2725 213 2448 61 
Q 2172 -91 1784 -91 
Q 1150 -91 751 415 
Q 353 922 353 1747 
Q 353 2572 751 3078 
Q 1150 3584 1784 3584 
Q 2172 3584 2448 3432 
Q 2725 3281 2906 2969 
z
M 947 1747 
Q 947 1113 1208 752 
Q 1469 391 1925 391 
Q 2381 391 2643 752 
Q 2906 1113 2906 1747 
Q 2906 2381 2643 2742 
Q 2381 3103 1925 3103 
Q 1469 3103 1208 2742 
Q 947 2381 947 1747 
z
" transform="scale(0.015625)"/>
       <path id="DejaVuSans-65" d="M 3597 1894 
L 3597 1613 
L 953 1613 
Q 991 1019 1311 708 
Q 1631 397 2203 397 
Q 2534 397 2845 478 
Q 3156 559 3463 722 
L 3463 178 
Q 3153 47 2828 -22 
Q 2503 -91 2169 -91 
Q 1331 -91 842 396 
Q 353 884 353 1716 
Q 353 2575 817 3079 
Q 1281 3584 2069 3584 
Q 2775 3584 3186 3129 
Q 3597 2675 3597 1894 
z
M 3022 2063 
Q 3016 2534 2758 2815 
Q 2500 3097 2075 3097 
Q 1594 3097 1305 2825 
Q 1016 2553 972 2059 
L 3022 2063 
z
" transform="scale(0.015625)"/>
       <path id="DejaVuSans-78" d="M 3513 3500 
L 2247 1797 
L 3578 0 
L 2900 0 
L 1881 1375 
L 863 0 
L 184 0 
L 1544 1831 
L 300 3500 
L 978 3500 
L 1906 2253 
L 2834 3500 
L 3513 3500 
z
" transform="scale(0.015625)"/>
       <path id="DejaVuSans-2d" d="M 313 2009 
L 1997 2009 
L 1997 1497 
L 313 1497 
L 313 2009 
z
" transform="scale(0.015625)"/>
       <path id="DejaVuSans-49" d="M 628 4666 
L 1259 4666 
L 1259 0 
L 628 0 
L 628 4666 
z
" transform="scale(0.015625)"/>
       <path id="DejaVuSans-63" d="M 3122 3366 
L 3122 2828 
Q 2878 2963 2633 3030 
Q 2388 3097 2138 3097 
Q 1578 3097 1268 2742 
Q 959 2388 959 1747 
Q 959 1106 1268 751 
Q 1578 397 2138 397 
Q 2388 397 2633 464 
Q 2878 531 3122 666 
L 3122 134 
Q 2881 22 2623 -34 
Q 2366 -91 2075 -91 
Q 1284 -91 818 406 
Q 353 903 353 1747 
Q 353 2603 823 3093 
Q 1294 3584 2113 3584 
Q 2378 3584 2631 3529 
Q 2884 3475 3122 3366 
z
" transform="scale(0.015625)"/>
       <path id="DejaVuSans-73" d="M 2834 3397 
L 2834 2853 
Q 2591 2978 2328 3040 
Q 2066 3103 1784 3103 
Q 1356 3103 1142 2972 
Q 928 2841 928 2578 
Q 928 2378 1081 2264 
Q 1234 2150 1697 2047 
L 1894 2003 
Q 2506 1872 2764 1633 
Q 3022 1394 3022 966 
Q 3022 478 2636 193 
Q 2250 -91 1575 -91 
Q 1294 -91 989 -36 
Q 684 19 347 128 
L 347 722 
Q 666 556 975 473 
Q 1284 391 1588 391 
Q 1994 391 2212 530 
Q 2431 669 2431 922 
Q 2431 1156 2273 1281 
Q 2116 1406 1581 1522 
L 1381 1569 
Q 847 1681 609 1914 
Q 372 2147 372 2553 
Q 372 3047 722 3315 
Q 1072 3584 1716 3584 
Q 2034 3584 2315 3537 
Q 2597 3491 2834 3397 
z
" transform="scale(0.015625)"/>
       <path id="DejaVuSans-72" d="M 2631 2963 
Q 2534 3019 2420 3045 
Q 2306 3072 2169 3072 
Q 1681 3072 1420 2755 
Q 1159 2438 1159 1844 
L 1159 0 
L 581 0 
L 581 3500 
L 1159 3500 
L 1159 2956 
Q 1341 3275 1631 3429 
Q 1922 3584 2338 3584 
Q 2397 3584 2469 3576 
Q 2541 3569 2628 3553 
L 2631 2963 
z
" transform="scale(0.015625)"/>
       <path id="DejaVuSans-62" d="M 3116 1747 
Q 3116 2381 2855 2742 
Q 2594 3103 2138 3103 
Q 1681 3103 1420 2742 
Q 1159 2381 1159 1747 
Q 1159 1113 1420 752 
Q 1681 391 2138 391 
Q 2594 391 2855 752 
Q 3116 1113 3116 1747 
z
M 1159 2969 
Q 1341 3281 1617 3432 
Q 1894 3584 2278 3584 
Q 2916 3584 3314 3078 
Q 3713 2572 3713 1747 
Q 3713 922 3314 415 
Q 2916 -91 2278 -91 
Q 1894 -91 1617 61 
Q 1341 213 1159 525 
L 1159 0 
L 581 0 
L 581 4863 
L 1159 4863 
L 1159 2969 
z
" transform="scale(0.015625)"/>
       <path id="DejaVuSans-79" d="M 2059 -325 
Q 1816 -950 1584 -1140 
Q 1353 -1331 966 -1331 
L 506 -1331 
L 506 -850 
L 844 -850 
Q 1081 -850 1212 -737 
Q 1344 -625 1503 -206 
L 1606 56 
L 191 3500 
L 800 3500 
L 1894 763 
L 2988 3500 
L 3597 3500 
L 2059 -325 
z
" transform="scale(0.015625)"/>
       <path id="DejaVuSans-59" d="M -13 4666 
L 666 4666 
L 1959 2747 
L 3244 4666 
L 3922 4666 
L 2272 2222 
L 2272 0 
L 1638 0 
L 1638 2222 
L -13 4666 
z
" transform="scale(0.015625)"/>
       <path id="DejaVuSans-76" d="M 191 3500 
L 800 3500 
L 1894 563 
L 2988 3500 
L 3597 3500 
L 2284 0 
L 1503 0 
L 191 3500 
z
" transform="scale(0.015625)"/>
       <path id="DejaVuSans-6c" d="M 603 4863 
L 1178 4863 
L 1178 0 
L 603 0 
L 603 4863 
z
" transform="scale(0.015625)"/>
       <path id="DejaVuSans-75" d="M 544 1381 
L 544 3500 
L 1119 3500 
L 1119 1403 
Q 1119 906 1312 657 
Q 1506 409 1894 409 
Q 2359 409 2629 706 
Q 2900 1003 2900 1516 
L 2900 3500 
L 3475 3500 
L 3475 0 
L 2900 0 
L 2900 538 
Q 2691 219 2414 64 
Q 2138 -91 1772 -91 
Q 1169 -91 856 284 
Q 544 659 544 1381 
z
M 1991 3584 
L 1991 3584 
z
" transform="scale(0.015625)"/>
      </defs>
      <use xlink:href="#DejaVuSans-44"/>
      <use xlink:href="#DejaVuSans-61" x="77.001953"/>
      <use xlink:href="#DejaVuSans-74" x="138.28125"/>
      <use xlink:href="#DejaVuSans-61" x="177.490234"/>
      <use xlink:href="#DejaVuSans-20" x="238.769531"/>
      <use xlink:href="#DejaVuSans-70" x="270.556641"/>
      <use xlink:href="#DejaVuSans-6f" x="334.033203"/>
      <use xlink:href="#DejaVuSans-69" x="395.214844"/>
      <use xlink:href="#DejaVuSans-6e" x="422.998047"/>
      <use xlink:href="#DejaVuSans-74" x="486.376953"/>
      <use xlink:href="#DejaVuSans-20" x="525.585938"/>
      <use xlink:href="#DejaVuSans-69" x="557.373047"/>
      <use xlink:href="#DejaVuSans-6e" x="585.15625"/>
      <use xlink:href="#DejaVuSans-64" x="648.535156"/>
      <use xlink:href="#DejaVuSans-65" x="712.011719"/>
      <use xlink:href="#DejaVuSans-78" x="771.785156"/>
      <use xlink:href="#DejaVuSans-20" x="830.964844"/>
      <use xlink:href="#DejaVuSans-2d" x="862.751953"/>
      <use xlink:href="#DejaVuSans-20" x="898.835938"/>
      <use xlink:href="#DejaVuSans-49" x="930.623047"/>
      <use xlink:href="#DejaVuSans-6e" x="960.115234"/>
      <use xlink:href="#DejaVuSans-64" x="1023.494141"/>
      <use xlink:href="#DejaVuSans-65" x="1086.970703"/>
      <use xlink:href="#DejaVuSans-63" x="1148.494141"/>
      <use xlink:href="#DejaVuSans-69" x="1203.474609"/>
      <use xlink:href="#DejaVuSans-65" x="1231.257812"/>
      <use xlink:href="#DejaVuSans-73" x="1292.78125"/>
      <use xlink:href="#DejaVuSans-20" x="1344.880859"/>
      <use xlink:href="#DejaVuSans-61" x="1376.667969"/>
      <use xlink:href="#DejaVuSans-72" x="1437.947266"/>
      <use xlink:href="#DejaVuSans-65" x="1476.810547"/>
      <use xlink:href="#DejaVuSans-20" x="1538.333984"/>
      <use xlink:href="#DejaVuSans-73" x="1570.121094"/>
      <use xlink:href="#DejaVuSans-6f" x="1622.220703"/>
      <use xlink:href="#DejaVuSans-72" x="1683.402344"/>
      <use xlink:href="#DejaVuSans-74" x="1724.515625"/>
      <use xlink:href="#DejaVuSans-65" x="1763.724609"/>
      <use xlink:href="#DejaVuSans-64" x="1825.248047"/>
      <use xlink:href="#DejaVuSans-20" x="1888.724609"/>
      <use xlink:href="#DejaVuSans-62" x="1920.511719"/>
      <use xlink:href="#DejaVuSans-79" x="1983.988281"/>
      <use xlink:href="#DejaVuSans-20" x="2043.167969"/>
      <use xlink:href="#DejaVuSans-59" x="2074.955078"/>
      <use xlink:href="#DejaVuSans-20" x="2136.039062"/>
      <use xlink:href="#DejaVuSans-76" x="2167.826172"/>
      <use xlink:href="#DejaVuSans-61" x="2227.005859"/>
      <use xlink:href="#DejaVuSans-6c" x="2288.285156"/>
      <use xlink:href="#DejaVuSans-75" x="2316.068359"/>
      <use xlink:href="#DejaVuSans-65" x="2379.447266"/>
     </g>
    </g>
   </g>
   <g id="matplotlib.axis_2">
    <g id="ytick_1">
     <g id="line2d_7">
      <defs>
       <path id="mbc68d2d33c" d="M 0 0 
L -3.5 0 
" style="stroke: #000000; stroke-width: 0.8"/>
      </defs>
      <g>
       <use xlink:href="#mbc68d2d33c" x="72" y="738.72" style="stroke: #000000; stroke-width: 0.8"/>
      </g>
     </g>
     <g id="text_8">
      <!-- 0.0 -->
      <g transform="translate(49.096875 742.519219)scale(0.1 -0.1)">
       <defs>
        <path id="DejaVuSans-2e" d="M 684 794 
L 1344 794 
L 1344 0 
L 684 0 
L 684 794 
z
" transform="scale(0.015625)"/>
       </defs>
       <use xlink:href="#DejaVuSans-30"/>
       <use xlink:href="#DejaVuSans-2e" x="63.623047"/>
       <use xlink:href="#DejaVuSans-30" x="95.410156"/>
      </g>
     </g>
    </g>
    <g id="ytick_2">
     <g id="line2d_8">
      <g>
       <use xlink:href="#mbc68d2d33c" x="72" y="645.291825" style="stroke: #000000; stroke-width: 0.8"/>
      </g>
     </g>
     <g id="text_9">
      <!-- 0.5 -->
      <g transform="translate(49.096875 649.091043)scale(0.1 -0.1)">
       <defs>
        <path id="DejaVuSans-35" d="M 691 4666 
L 3169 4666 
L 3169 4134 
L 1269 4134 
L 1269 2991 
Q 1406 3038 1543 3061 
Q 1681 3084 1819 3084 
Q 2600 3084 3056 2656 
Q 3513 2228 3513 1497 
Q 3513 744 3044 326 
Q 2575 -91 1722 -91 
Q 1428 -91 1123 -41 
Q 819 9 494 109 
L 494 744 
Q 775 591 1075 516 
Q 1375 441 1709 441 
Q 2250 441 2565 725 
Q 2881 1009 2881 1497 
Q 2881 1984 2565 2268 
Q 2250 2553 1709 2553 
Q 1456 2553 1204 2497 
Q 953 2441 691 2322 
L 691 4666 
z
" transform="scale(0.015625)"/>
       </defs>
       <use xlink:href="#DejaVuSans-30"/>
       <use xlink:href="#DejaVuSans-2e" x="63.623047"/>
       <use xlink:href="#DejaVuSans-35" x="95.410156"/>
      </g>
     </g>
    </g>
    <g id="ytick_3">
     <g id="line2d_9">
      <g>
       <use xlink:href="#mbc68d2d33c" x="72" y="551.863649" style="stroke: #000000; stroke-width: 0.8"/>
      </g>
     </g>
     <g id="text_10">
      <!-- 1.0 -->
      <g transform="translate(49.096875 555.662868)scale(0.1 -0.1)">
       <use xlink:href="#DejaVuSans-31"/>
       <use xlink:href="#DejaVuSans-2e" x="63.623047"/>
       <use xlink:href="#DejaVuSans-30" x="95.410156"/>
      </g>
     </g>
    </g>
    <g id="ytick_4">
     <g id="line2d_10">
      <g>
       <use xlink:href="#mbc68d2d33c" x="72" y="458.435474" style="stroke: #000000; stroke-width: 0.8"/>
      </g>
     </g>
     <g id="text_11">
      <!-- 1.5 -->
      <g transform="translate(49.096875 462.234693)scale(0.1 -0.1)">
       <use xlink:href="#DejaVuSans-31"/>
       <use xlink:href="#DejaVuSans-2e" x="63.623047"/>
       <use xlink:href="#DejaVuSans-35" x="95.410156"/>
      </g>
     </g>
    </g>
    <g id="ytick_5">
     <g id="line2d_11">
      <g>
       <use xlink:href="#mbc68d2d33c" x="72" y="365.007299" style="stroke: #000000; stroke-width: 0.8"/>
      </g>
     </g>
     <g id="text_12">
      <!-- 2.0 -->
      <g transform="translate(49.096875 368.806517)scale(0.1 -0.1)">
       <use xlink:href="#DejaVuSans-32"/>
       <use xlink:href="#DejaVuSans-2e" x="63.623047"/>
       <use xlink:href="#DejaVuSans-30" x="95.410156"/>
      </g>
     </g>
    </g>
    <g id="ytick_6">
     <g id="line2d_12">
      <g>
       <use xlink:href="#mbc68d2d33c" x="72" y="271.579123" style="stroke: #000000; stroke-width: 0.8"/>
      </g>
     </g>
     <g id="text_13">
      <!-- 2.5 -->
      <g transform="translate(49.096875 275.378342)scale(0.1 -0.1)">
       <use xlink:href="#DejaVuSans-32"/>
       <use xlink:href="#DejaVuSans-2e" x="63.623047"/>
       <use xlink:href="#DejaVuSans-35" x="95.410156"/>
      </g>
     </g>
    </g>
    <g id="ytick_7">
     <g id="line2d_13">
      <g>
       <use xlink:href="#mbc68d2d33c" x="72" y="178.150948" style="stroke: #000000; stroke-width: 0.8"/>
      </g>
     </g>
     <g id="text_14">
      <!-- 3.0 -->
      <g transform="translate(49.096875 181.950167)scale(0.1 -0.1)">
       <defs>
        <path id="DejaVuSans-33" d="M 2597 2516 
Q 3050 2419 3304 2112 
Q 3559 1806 3559 1356 
Q 3559 666 3084 287 
Q 2609 -91 1734 -91 
Q 1441 -91 1130 -33 
Q 819 25 488 141 
L 488 750 
Q 750 597 1062 519 
Q 1375 441 1716 441 
Q 2309 441 2620 675 
Q 2931 909 2931 1356 
Q 2931 1769 2642 2001 
Q 2353 2234 1838 2234 
L 1294 2234 
L 1294 2753 
L 1863 2753 
Q 2328 2753 2575 2939 
Q 2822 3125 2822 3475 
Q 2822 3834 2567 4026 
Q 2313 4219 1838 4219 
Q 1578 4219 1281 4162 
Q 984 4106 628 3988 
L 628 4550 
Q 988 4650 1302 4700 
Q 1616 4750 1894 4750 
Q 2613 4750 3031 4423 
Q 3450 4097 3450 3541 
Q 3450 3153 3228 2886 
Q 3006 2619 2597 2516 
z
" transform="scale(0.015625)"/>
       </defs>
       <use xlink:href="#DejaVuSans-33"/>
       <use xlink:href="#DejaVuSans-2e" x="63.623047"/>
       <use xlink:href="#DejaVuSans-30" x="95.410156"/>
      </g>
     </g>
    </g>
    <g id="text_15">
     <!-- Points distance -->
     <g transform="translate(40.9375 511.902812)rotate(-90)scale(0.2 -0.2)">
      <defs>
       <path id="DejaVuSans-50" d="M 1259 4147 
L 1259 2394 
L 2053 2394 
Q 2494 2394 2734 2622 
Q 2975 2850 2975 3272 
Q 2975 3691 2734 3919 
Q 2494 4147 2053 4147 
L 1259 4147 
z
M 628 4666 
L 2053 4666 
Q 2838 4666 3239 4311 
Q 3641 3956 3641 3272 
Q 3641 2581 3239 2228 
Q 2838 1875 2053 1875 
L 1259 1875 
L 1259 0 
L 628 0 
L 628 4666 
z
" transform="scale(0.015625)"/>
      </defs>
      <use xlink:href="#DejaVuSans-50"/>
      <use xlink:href="#DejaVuSans-6f" x="56.677734"/>
      <use xlink:href="#DejaVuSans-69" x="117.859375"/>
      <use xlink:href="#DejaVuSans-6e" x="145.642578"/>
      <use xlink:href="#DejaVuSans-74" x="209.021484"/>
      <use xlink:href="#DejaVuSans-73" x="248.230469"/>
      <use xlink:href="#DejaVuSans-20" x="300.330078"/>
      <use xlink:href="#DejaVuSans-64" x="332.117188"/>
      <use xlink:href="#DejaVuSans-69" x="395.59375"/>
      <use xlink:href="#DejaVuSans-73" x="423.376953"/>
      <use xlink:href="#DejaVuSans-74" x="475.476562"/>
      <use xlink:href="#DejaVuSans-61" x="514.685547"/>
      <use xlink:href="#DejaVuSans-6e" x="575.964844"/>
      <use xlink:href="#DejaVuSans-63" x="639.34375"/>
      <use xlink:href="#DejaVuSans-65" x="694.324219"/>
     </g>
    </g>
   </g>
   <g id="line2d_14">
    <path d="M 92.290909 738.72 
L 115.221929 738.719994 
L 115.343687 734.817294 
L 120.903952 734.817294 
L 121.02571 733.63245 
L 123.176761 733.63245 
L 123.298519 733.143432 
L 123.623206 733.040854 
L 123.866721 732.692216 
L 123.907307 732.681337 
L 124.029065 732.263477 
L 124.191408 732.197019 
L 124.516095 732.197019 
L 124.637853 731.851931 
L 124.800196 731.851931 
L 124.96254 731.590422 
L 125.206055 731.569444 
L 125.368399 731.569444 
L 125.490156 731.295667 
L 126.301874 731.215236 
L 126.464217 731.129911 
L 126.667147 731.027502 
L 127.154177 731.01791 
L 127.925309 730.91075 
L 128.087652 730.829117 
L 128.412339 730.728743 
L 128.574683 730.633466 
L 129.711087 730.633466 
L 129.832845 730.4219 
L 130.441633 730.357763 
L 130.644563 730.20316 
L 132.876786 730.105746 
L 133.039129 730.058153 
L 133.647918 729.951983 
L 134.378463 729.891412 
L 135.433696 729.783718 
L 135.717797 729.728662 
L 139.289354 729.641865 
L 139.614041 729.557161 
L 141.196891 729.161715 
L 141.359234 729.025369 
L 141.643335 728.930907 
L 142.170952 728.822564 
L 142.860912 728.75206 
L 143.063841 728.661079 
L 144.200245 728.571029 
L 144.484347 728.453105 
L 146.473055 728.236264 
L 146.635398 728.13841 
L 149.314066 727.874303 
L 150.6534 727.611135 
L 152.195663 727.501454 
L 152.560936 727.336234 
L 153.250896 727.193021 
L 156.132493 726.790673 
L 156.335423 726.716772 
L 156.700696 726.649619 
L 157.674757 726.541456 
L 157.8371 726.451717 
L 158.161787 726.343915 
L 161.08397 725.819829 
L 161.2869 725.777317 
L 163.113264 725.548614 
L 163.356779 725.498052 
L 164.371426 725.387514 
L 164.817871 725.331599 
L 165.832518 725.234653 
L 166.481892 725.09362 
L 167.821226 724.90093 
L 168.024155 724.807955 
L 168.835873 724.705738 
L 169.119974 724.659154 
L 169.728762 724.556319 
L 170.459308 724.428823 
L 171.473955 724.328824 
L 171.879813 724.244763 
L 172.40743 724.133701 
L 173.340905 724.014084 
L 175.329613 723.721719 
L 178.941756 723.233489 
L 179.469372 723.141076 
L 181.214565 722.908537 
L 181.539252 722.856659 
L 182.513313 722.771174 
L 182.716243 722.721103 
L 183.649718 722.621541 
L 183.893233 722.544253 
L 184.989052 722.438163 
L 186.450143 722.161246 
L 186.653073 722.094251 
L 187.748891 721.987263 
L 187.992407 721.940851 
L 188.925882 721.806069 
L 189.128811 721.754142 
L 189.697013 721.67253 
L 189.899943 721.622418 
L 190.346387 721.552113 
L 197.40833 720.594533 
L 198.382391 720.493838 
L 198.910007 720.404019 
L 200.046412 720.28918 
L 200.411685 720.244216 
L 201.34516 720.144246 
L 201.588675 720.102958 
L 202.197463 720.009252 
L 202.562736 719.934938 
L 203.252696 719.813999 
L 205.890778 719.467938 
L 206.621324 719.356487 
L 207.554799 719.249442 
L 208.04183 719.17892 
L 209.299992 718.960396 
L 209.90878 718.855052 
L 210.355225 718.801729 
L 228.578283 716.285102 
L 229.714688 716.174022 
L 232.393356 715.843732 
L 234.787922 715.643473 
L 235.274953 715.593219 
L 237.507176 715.436032 
L 238.034793 715.32772 
L 238.684167 715.191613 
L 239.171197 715.135281 
L 240.023501 715.026433 
L 246.273726 714.217412 
L 247.734817 714.114254 
L 248.708878 714.034137 
L 249.682939 713.924545 
L 254.918517 713.331773 
L 255.080861 713.273342 
L 255.689649 713.208847 
L 257.069569 713.101294 
L 259.464136 712.77326 
L 260.60054 712.666692 
L 262.386319 712.483356 
L 264.009754 712.268433 
L 266.160805 712.044574 
L 267.013109 711.893537 
L 267.216038 711.844741 
L 268.149513 711.694294 
L 269.204746 711.558679 
L 269.610605 711.49556 
L 270.381736 711.374167 
L 270.868767 711.282074 
L 271.639899 711.189608 
L 271.842828 711.154442 
L 288.15835 709.093238 
L 288.564209 709.023608 
L 289.335341 708.911051 
L 291.242877 708.699034 
L 291.648736 708.650432 
L 292.906898 708.549547 
L 293.515686 708.493973 
L 294.286818 708.37521 
L 295.139121 708.256463 
L 295.585566 708.157103 
L 296.153768 708.039025 
L 296.72197 707.925297 
L 303.337468 706.892762 
L 304.189772 706.786711 
L 311.170543 705.718984 
L 311.332886 705.654174 
L 311.860502 705.552583 
L 312.104018 705.49005 
L 313.078079 705.376914 
L 316.771394 704.812387 
L 317.217838 704.722856 
L 317.948384 704.621522 
L 318.394829 704.548581 
L 320.05885 704.310116 
L 320.302365 704.253125 
L 321.479355 704.1438 
L 321.966386 704.069783 
L 322.61576 703.985517 
L 322.859275 703.922986 
L 330.530006 702.769214 
L 330.854693 702.728542 
L 331.585239 702.585395 
L 332.031683 702.451347 
L 332.5593 702.405773 
L 333.249259 702.26404 
L 333.776876 702.109275 
L 334.182735 702.027662 
L 334.385664 701.980384 
L 334.91328 701.862087 
L 335.156796 701.81677 
L 339.824172 700.918437 
L 340.270616 700.815244 
L 340.595303 700.723333 
L 341.244677 700.623589 
L 342.98987 700.232739 
L 343.720416 700.128347 
L 344.004517 700.077747 
L 350.092398 699.050692 
L 352.081106 698.734394 
L 352.811652 698.603601 
L 353.055167 698.540278 
L 353.501612 698.418531 
L 353.704541 698.369119 
L 354.759774 698.219903 
L 355.530906 698.05116 
L 356.991997 697.788363 
L 357.722543 697.668013 
L 358.656018 697.368707 
L 359.589493 697.22982 
L 359.954766 697.128809 
L 361.537616 696.87472 
L 361.781131 696.712435 
L 362.471091 696.617153 
L 362.917535 696.546433 
L 364.622142 696.157389 
L 364.825072 696.117191 
L 368.802488 695.158383 
L 369.127175 695.062398 
L 369.735963 694.827108 
L 370.425923 694.725069 
L 371.684085 694.460681 
L 372.374045 694.367203 
L 372.61756 694.303421 
L 373.632207 694.055851 
L 373.99748 693.978241 
L 374.809197 693.782595 
L 375.417985 693.641066 
L 375.620915 693.582063 
L 376.351461 693.486586 
L 376.55439 693.42099 
L 376.716733 693.301765 
L 377.203764 693.259021 
L 377.812552 693.149992 
L 380.125947 692.616888 
L 380.450634 692.472799 
L 381.100008 692.303867 
L 381.262352 692.190102 
L 382.723443 691.801855 
L 382.926373 691.733317 
L 383.291646 691.63801 
L 383.494575 691.585189 
L 383.900434 691.489197 
L 384.062777 691.392062 
L 384.874495 691.249852 
L 386.213829 690.908003 
L 386.416758 690.796099 
L 387.025546 690.63445 
L 387.431405 690.496881 
L 388.446052 690.18658 
L 388.730153 690.017857 
L 389.298355 689.897848 
L 391.12472 689.504586 
L 391.408821 689.398389 
L 391.489993 689.330893 
L 391.652336 689.248176 
L 392.220538 689.141184 
L 392.382882 689.091964 
L 392.951084 688.996954 
L 393.235185 688.83962 
L 393.356943 688.765608 
L 393.519286 688.704851 
L 393.925145 688.610078 
L 394.533933 688.286889 
L 395.670338 687.970562 
L 395.832681 687.859752 
L 396.076197 687.795033 
L 396.23854 687.698478 
L 396.563227 687.59673 
L 397.577874 687.302028 
L 398.146076 687.200381 
L 401.636462 686.104006 
L 402.042321 685.992177 
L 402.285836 685.914637 
L 402.488765 685.756962 
L 402.732281 685.690761 
L 403.219311 685.52438 
L 410.849456 683.166223 
L 411.904689 682.874797 
L 412.472891 682.75852 
L 412.756992 682.637766 
L 413.162851 682.532178 
L 413.56871 682.321752 
L 414.177498 682.15553 
L 414.339841 682.07025 
L 415.110973 681.82835 
L 415.273316 681.731338 
L 416.12562 681.465612 
L 416.369135 681.320226 
L 416.856166 681.185104 
L 417.018509 681.114189 
L 417.30261 681.008887 
L 417.789641 680.831026 
L 418.357843 680.708155 
L 418.68253 680.62336 
L 419.047803 680.579219 
L 419.250732 680.39571 
L 419.778349 680.276972 
L 420.143622 680.082385 
L 420.508895 679.978028 
L 420.75241 679.827098 
L 421.280026 679.69595 
L 422.741118 679.087135 
L 422.903461 679.014296 
L 423.431078 678.821174 
L 424.68924 678.302532 
L 424.892169 678.235632 
L 425.785059 677.93372 
L 425.947402 677.772545 
L 427.124392 677.403139 
L 428.220211 676.834377 
L 428.585484 676.666075 
L 428.788413 676.387766 
L 429.234858 676.266634 
L 430.290091 675.868178 
L 430.69595 675.485092 
L 431.020637 675.383705 
L 431.223566 675.290593 
L 431.832354 675.000394 
L 432.116455 674.889468 
L 432.603486 674.71495 
L 432.806415 674.572741 
L 435.80977 672.987483 
L 436.012699 672.804728 
L 436.134457 672.723631 
L 436.418558 672.526926 
L 436.743245 672.426885 
L 437.18969 672.284095 
L 437.433205 672.184549 
L 438.163751 671.922268 
L 438.975468 671.699549 
L 439.340741 671.47912 
L 439.665428 671.361745 
L 439.990115 671.137848 
L 440.558318 670.890116 
L 440.761247 670.831322 
L 441.12652 670.728314 
L 441.288863 670.654954 
L 441.451207 670.596316 
L 441.61355 670.39393 
L 441.775894 670.313332 
L 442.019409 670.184178 
L 442.50644 669.979967 
L 443.115228 669.681075 
L 443.318157 669.603853 
L 443.521087 669.533114 
L 443.68343 669.326678 
L 444.089289 669.223537 
L 444.413976 668.919447 
L 444.616905 668.730742 
L 445.06335 668.574036 
L 445.306865 668.493304 
L 445.469209 668.292329 
L 445.672138 668.098735 
L 446.077997 667.976276 
L 446.402684 667.657302 
L 447.336159 666.885446 
L 447.498503 666.552043 
L 448.107291 666.349099 
L 448.269634 666.222601 
L 448.513149 666.096858 
L 448.716079 665.942644 
L 448.878422 665.846687 
L 449.324867 665.506899 
L 449.527796 665.436463 
L 450.014827 665.261126 
L 450.17717 665.094924 
L 450.542443 664.99809 
L 451.272989 664.57685 
L 451.638262 664.38858 
L 451.841191 664.285283 
L 452.125293 664.201638 
L 452.287636 664.120388 
L 452.531151 663.986148 
L 453.139939 663.666708 
L 453.383455 663.552218 
L 453.62697 663.314882 
L 453.829899 663.211167 
L 453.951657 663.043011 
L 454.398102 662.696378 
L 454.844546 662.601911 
L 456.021537 661.942139 
L 456.143294 661.870339 
L 456.38681 661.67805 
L 456.549153 661.551666 
L 456.955012 661.195599 
L 457.036184 661.190775 
L 457.198527 660.924513 
L 457.401457 660.812635 
L 457.644972 660.664324 
L 457.929073 660.486061 
L 458.172588 660.452857 
L 458.294346 660.301879 
L 458.578447 660.150796 
L 458.821962 659.964918 
L 459.268407 659.562461 
L 459.511922 659.006141 
L 459.796023 658.808927 
L 460.242468 658.714221 
L 460.32364 658.657304 
L 460.485983 658.296159 
L 460.688913 658.178233 
L 460.932428 658.110795 
L 461.094771 657.868825 
L 461.216529 657.791717 
L 461.622388 657.470094 
L 462.109418 657.128458 
L 462.352933 656.621354 
L 462.555863 656.516349 
L 463.083479 656.012161 
L 463.245823 655.595047 
L 464.098126 654.500834 
L 464.301056 654.468797 
L 464.503985 654.189608 
L 464.585157 654.180659 
L 464.788086 653.886009 
L 465.112773 653.626461 
L 465.396874 653.447505 
L 465.599804 653.268354 
L 465.762147 653.158001 
L 466.086834 652.840596 
L 466.249178 652.450171 
L 466.411521 652.311346 
L 466.573865 652.174323 
L 466.857966 651.990382 
L 467.426168 651.277005 
L 467.588512 651.164021 
L 467.791441 651.026131 
L 468.724916 650.157022 
L 468.846674 649.893222 
L 469.049603 649.827083 
L 469.617805 649.018991 
L 469.658391 649.018909 
L 469.820735 648.842593 
L 470.145422 648.352453 
L 470.307765 648.148135 
L 470.510695 647.841511 
L 470.997725 647.165832 
L 471.160069 647.050807 
L 471.24124 646.879645 
L 471.606513 646.093095 
L 471.768857 645.974822 
L 472.255887 645.445115 
L 472.499403 645.366352 
L 472.661746 645.180736 
L 473.027019 644.994476 
L 473.595221 644.234465 
L 473.757565 644.025045 
L 473.838737 643.916225 
L 474.082252 643.661691 
L 474.366353 643.079309 
L 474.447525 643.078005 
L 474.69104 642.563107 
L 474.893969 642.436407 
L 475.015727 642.196921 
L 475.259242 641.951623 
L 475.421586 641.624925 
L 475.583929 641.527968 
L 476.233303 640.333403 
L 476.598576 640.117161 
L 476.882677 639.755063 
L 477.004435 639.657833 
L 477.166778 639.594493 
L 477.329122 639.295313 
L 477.410294 639.275138 
L 477.572637 638.875913 
L 477.694395 638.764666 
L 477.856738 638.448637 
L 478.059668 638.151939 
L 478.384355 637.768887 
L 478.587284 637.408717 
L 478.668456 637.323807 
L 478.830799 637.233908 
L 478.952557 637.224338 
L 479.196072 636.8322 
L 479.520759 636.583311 
L 479.764275 636.258819 
L 479.845446 636.249215 
L 480.048376 635.851555 
L 480.170133 635.770196 
L 480.210719 635.715707 
L 480.373063 635.15503 
L 480.454235 635.132242 
L 480.616578 634.510687 
L 481.18478 633.453545 
L 481.468881 633.28081 
L 482.280599 632.15224 
L 482.442942 631.713362 
L 482.605286 631.493134 
L 482.727044 631.321583 
L 482.889387 630.796076 
L 483.417004 629.822633 
L 483.619933 629.128933 
L 483.782276 628.978082 
L 483.904034 628.718061 
L 484.025792 628.681591 
L 484.228721 628.224191 
L 484.959267 626.970896 
L 485.12161 626.382004 
L 485.527469 625.752582 
L 485.568055 625.700107 
L 485.770984 624.945181 
L 485.81157 624.921447 
L 485.973914 624.428526 
L 486.460944 623.603271 
L 486.582702 623.517238 
L 486.866803 622.38447 
L 487.029147 621.80688 
L 487.19149 621.108366 
L 487.232076 621.108366 
L 487.394419 619.446619 
L 487.597349 618.645372 
L 487.678521 618.618734 
L 487.840864 618.282751 
L 487.88145 618.263275 
L 488.084379 617.346053 
L 488.530824 616.404594 
L 488.611996 616.300129 
L 488.774339 615.816948 
L 488.936683 614.80293 
L 489.139612 614.405372 
L 489.342542 612.502933 
L 489.423713 612.417539 
L 489.586057 612.032099 
L 489.788986 610.500225 
L 489.829572 610.467328 
L 489.991916 609.183052 
L 490.43836 607.137818 
L 490.478946 607.115217 
L 490.64129 606.483137 
L 490.763047 606.416475 
L 491.209492 603.762986 
L 491.250078 603.737387 
L 491.534179 602.291243 
L 491.777694 600.091469 
L 491.899452 600.012276 
L 492.142967 598.428209 
L 492.183553 598.413795 
L 492.50824 597.111078 
L 492.914099 592.74488 
L 492.99527 592.521441 
L 493.279372 589.684383 
L 493.319957 589.680218 
L 493.482301 587.305077 
L 493.522887 587.228126 
L 494.131675 582.598725 
L 494.253433 582.489962 
L 494.415776 580.929596 
L 494.456362 580.929596 
L 494.57812 580.366734 
L 494.740463 578.306122 
L 495.146322 576.299059 
L 495.552181 569.094727 
L 495.673938 567.162949 
L 495.876868 566.312733 
L 496.039211 558.622313 
L 496.44507 554.707255 
L 496.607413 552.035496 
L 496.810343 547.025477 
L 497.094444 532.922394 
L 497.13503 532.922394 
L 497.256787 528.998921 
L 497.297373 528.639574 
L 497.62206 498.892605 
L 498.068505 429.394778 
L 498.109091 133.92 
L 498.109091 133.92 
" clip-path="url(#p478a63e795)" style="fill: none; stroke: #1f77b4; stroke-width: 1.5; stroke-linecap: square"/>
   </g>
   <g id="patch_3">
    <path d="M 72 768.96 
L 72 103.68 
" style="fill: none; stroke: #000000; stroke-width: 0.8; stroke-linejoin: miter; stroke-linecap: square"/>
   </g>
   <g id="patch_4">
    <path d="M 518.4 768.96 
L 518.4 103.68 
" style="fill: none; stroke: #000000; stroke-width: 0.8; stroke-linejoin: miter; stroke-linecap: square"/>
   </g>
   <g id="patch_5">
    <path d="M 72 768.96 
L 518.4 768.96 
" style="fill: none; stroke: #000000; stroke-width: 0.8; stroke-linejoin: miter; stroke-linecap: square"/>
   </g>
   <g id="patch_6">
    <path d="M 72 103.68 
L 518.4 103.68 
" style="fill: none; stroke: #000000; stroke-width: 0.8; stroke-linejoin: miter; stroke-linecap: square"/>
   </g>
  </g>
 </g>
 <defs>
  <clipPath id="p478a63e795">
   <rect x="72" y="103.68" width="446.4" height="665.28"/>
  </clipPath>
 </defs>
</svg>
